<mxfile host="Electron" agent="Mozilla/5.0 (Macintosh; Intel Mac OS X 10_15_7) AppleWebKit/537.36 (KHTML, like Gecko) draw.io/24.7.17 Chrome/128.0.6613.36 Electron/32.0.1 Safari/537.36" version="24.7.17">
  <diagram name="to-be" id="-FQbQIRzEgXYEJ3rUFKh">
    <mxGraphModel dx="2479" dy="1234" grid="1" gridSize="10" guides="1" tooltips="1" connect="1" arrows="1" fold="1" page="1" pageScale="1" pageWidth="827" pageHeight="1169" math="0" shadow="0">
      <root>
        <mxCell id="0" />
        <mxCell id="1" parent="0" />
        <mxCell id="PMTPL5XqbX-TbTa32AAc-103" value="&lt;div style=&quot;font-size: 1px&quot;&gt;&lt;font style=&quot;font-size:22.58px;font-family:Arial;color:#000000;direction:ltr;letter-spacing:0px;line-height:120%;opacity:1&quot;&gt;ЦОД 3&lt;/font&gt;&lt;/div&gt;" style="verticalAlign=bottom;align=center;overflow=width;vsdxID=5;fillColor=#e3ebff;gradientColor=none;shape=stencil(vVNBDsIgEHwNRwxCjHqu+g9iaUtEaBa09fdSwdpi9dBDb8vOwOwsGcQyW/FaIEqsA3MRjcxdhdgBUSp1JUA6XyF2RCwrDIgSzE3n4VzzjtlVV3PvXmjDPdLdoOQRTrvtavNqnAKXw9mDELkBIhDJaxrJZIy/YRLfbjFvpcVgHHfS6JGu4lAK7GVwoXg5gmwjRP3VjoMpqQcm9tPKs0z0Y6crWcBHqt0PN8tJspXFfmNKdpaBH8tYwML/VPjiE6dCKhXSOMTT+PlWiC47PgE=);strokeColor=none;spacingTop=-3;spacingBottom=-3;spacingLeft=-3;spacingRight=-3;points=[[0,0.5,0,0,0],[0.5,0,0,0,0],[0.5,1,0,0,0],[1,0.5,0,0,0]];labelBackgroundColor=none;rounded=0;html=1;whiteSpace=wrap;container=0;movable=1;resizable=1;rotatable=1;deletable=1;editable=1;locked=0;connectable=1;" vertex="1" parent="1">
          <mxGeometry x="480" y="480" width="390.22" height="620" as="geometry" />
        </mxCell>
        <mxCell id="PMTPL5XqbX-TbTa32AAc-84" value="&lt;div style=&quot;font-size: 1px&quot;&gt;&lt;font style=&quot;font-size:22.58px;font-family:Arial;color:#000000;direction:ltr;letter-spacing:0px;line-height:120%;opacity:1&quot;&gt;ЦОД 2&lt;/font&gt;&lt;/div&gt;" style="verticalAlign=bottom;align=center;overflow=width;vsdxID=5;fillColor=#e3ebff;gradientColor=none;shape=stencil(vVNBDsIgEHwNRwxCjHqu+g9iaUtEaBa09fdSwdpi9dBDb8vOwOwsGcQyW/FaIEqsA3MRjcxdhdgBUSp1JUA6XyF2RCwrDIgSzE3n4VzzjtlVV3PvXmjDPdLdoOQRTrvtavNqnAKXw9mDELkBIhDJaxrJZIy/YRLfbjFvpcVgHHfS6JGu4lAK7GVwoXg5gmwjRP3VjoMpqQcm9tPKs0z0Y6crWcBHqt0PN8tJspXFfmNKdpaBH8tYwML/VPjiE6dCKhXSOMTT+PlWiC47PgE=);strokeColor=none;spacingTop=-3;spacingBottom=-3;spacingLeft=-3;spacingRight=-3;points=[[0,0.5,0,0,0],[0.5,0,0,0,0],[0.5,1,0,0,0],[1,0.5,0,0,0]];labelBackgroundColor=none;rounded=0;html=1;whiteSpace=wrap;container=0;movable=1;resizable=1;rotatable=1;deletable=1;editable=1;locked=0;connectable=1;" vertex="1" parent="1">
          <mxGeometry x="40" y="480" width="390.22" height="620" as="geometry" />
        </mxCell>
        <mxCell id="Zcm5tQwCMB2YyKj0-IPv-7" value="&lt;div style=&quot;font-size: 1px&quot;&gt;&lt;font style=&quot;font-size:22.58px;font-family:Arial;color:#000000;direction:ltr;letter-spacing:0px;line-height:120%;opacity:1&quot;&gt;ЦОД 1&lt;/font&gt;&lt;/div&gt;" style="verticalAlign=bottom;align=center;overflow=width;vsdxID=5;fillColor=#e3ebff;gradientColor=none;shape=stencil(vVNBDsIgEHwNRwxCjHqu+g9iaUtEaBa09fdSwdpi9dBDb8vOwOwsGcQyW/FaIEqsA3MRjcxdhdgBUSp1JUA6XyF2RCwrDIgSzE3n4VzzjtlVV3PvXmjDPdLdoOQRTrvtavNqnAKXw9mDELkBIhDJaxrJZIy/YRLfbjFvpcVgHHfS6JGu4lAK7GVwoXg5gmwjRP3VjoMpqQcm9tPKs0z0Y6crWcBHqt0PN8tJspXFfmNKdpaBH8tYwML/VPjiE6dCKhXSOMTT+PlWiC47PgE=);strokeColor=none;spacingTop=-3;spacingBottom=-3;spacingLeft=-3;spacingRight=-3;points=[[0,0.5,0,0,0],[0.5,0,0,0,0],[0.5,1,0,0,0],[1,0.5,0,0,0]];labelBackgroundColor=none;rounded=0;html=1;whiteSpace=wrap;container=0;movable=1;resizable=1;rotatable=1;deletable=1;editable=1;locked=0;connectable=1;" parent="1" vertex="1">
          <mxGeometry x="-413" y="480" width="390.22" height="620" as="geometry" />
        </mxCell>
        <mxCell id="PMTPL5XqbX-TbTa32AAc-129" style="vsdxID=5;fillColor=none;gradientColor=none;strokeColor=none;spacingTop=-3;spacingBottom=-3;spacingLeft=-3;spacingRight=-3;points=[];labelBackgroundColor=none;rounded=0;html=1;whiteSpace=wrap;movable=0;resizable=0;rotatable=0;deletable=0;editable=0;locked=1;connectable=0;" vertex="1" parent="1">
          <mxGeometry x="-550" y="838" width="1490" height="222" as="geometry" />
        </mxCell>
        <mxCell id="PMTPL5XqbX-TbTa32AAc-130" style="vsdxID=6;fillColor=none;gradientColor=none;shape=stencil(vVNdD4IgFP01PMpIms1ns//BEpVF4K6U9u/DoFJxPdjm2/04cO65cBDN2po1HMWkNaAvvBOFqRE9ojgWquYgjI0QzRHNSg28An1ThcsbNiCH6Krvww29O0eGEzF5uCwleP8qnByWwdk2wWMpTg8ODm88TlwhQHjAjniCPmK9aCPQhhmh1YRcMqh4ZLmiUrJq0mo7zpug7KeTQo2UpAkmdJF8pZjP7PPlbCAm4PazrZQS7mazZwm+xF9vsryVDWT89okNvgYrhZTOn+P+3JC25MxM8yc=);strokeColor=#5282ff;spacingTop=-3;spacingBottom=-3;spacingLeft=-3;spacingRight=-3;points=[];labelBackgroundColor=none;rounded=0;html=1;whiteSpace=wrap;movable=0;resizable=0;rotatable=0;deletable=0;editable=0;locked=1;connectable=0;" vertex="1" parent="PMTPL5XqbX-TbTa32AAc-129">
          <mxGeometry width="1490" height="222" as="geometry" />
        </mxCell>
        <mxCell id="PMTPL5XqbX-TbTa32AAc-132" value="Patroni" style="text;html=1;align=center;verticalAlign=middle;whiteSpace=wrap;rounded=0;" vertex="1" parent="PMTPL5XqbX-TbTa32AAc-129">
          <mxGeometry x="40" y="62" width="60" height="30" as="geometry" />
        </mxCell>
        <mxCell id="PMTPL5XqbX-TbTa32AAc-97" value="" style="rounded=1;whiteSpace=wrap;html=1;fillColor=none;strokeColor=#5282ff;" vertex="1" parent="PMTPL5XqbX-TbTa32AAc-129">
          <mxGeometry x="693" y="12" width="150" height="60" as="geometry" />
        </mxCell>
        <mxCell id="PMTPL5XqbX-TbTa32AAc-98" value="" style="shape=image;verticalLabelPosition=bottom;labelBackgroundColor=#ffffff;verticalAlign=top;aspect=fixed;imageAspect=0;image=data:image/svg+xml,PHN2ZyB4bWxucz0iaHR0cDovL3d3dy53My5vcmcvMjAwMC9zdmciIHdpZHRoPSIzMiIgaGVpZ2h0PSIzMiIgdmlld0JveD0iMCAwIDMyIDMyIiBmaWxsPSJub25lIj4mI3hhOzxwYXRoIGQ9Ik0xNiAzMkMyNC44MzY2IDMyIDMyIDI0LjgzNjYgMzIgMTZDMzIgNy4xNjM0NCAyNC44MzY2IDAgMTYgMEM3LjE2MzQ0IDAgMCA3LjE2MzQ0IDAgMTZDMCAyNC44MzY2IDcuMTYzNDQgMzIgMTYgMzJaIiBmaWxsPSIjNTI4MkZGIi8+JiN4YTs8cGF0aCBmaWxsLXJ1bGU9ImV2ZW5vZGQiIGNsaXAtcnVsZT0iZXZlbm9kZCIgZD0iTTIzLjI0NjEgMjRWMjAuMDU1N0wyMS44Nzg3IDIxLjE0NjVMMTkuMjIyOSAxNy43NTU5QzE5LjU5MTUgMTcuMjU3NiAxOS44MDk0IDE2LjY0MSAxOS44MDk0IDE1Ljk3MzZDMTkuODA5NCAxNS44NDY0IDE5LjgwMTUgMTUuNzIxMSAxOS43ODYyIDE1LjU5ODFMMjEuMzgxOCAxNC45NzkxTDIyLjAxMzIgMTYuNjI0MUwyMy45OTk1IDEzLjIzMDVMMjAuMjUyNiAxMi4wMzc2TDIwLjg4IDEzLjY3MjFMMTkuMjkxNyAxNC4yODgzQzE4Ljc1MTkgMTMuNDk0OCAxNy44NDE1IDEyLjk3MzYgMTYuODA5NCAxMi45NzM2QzE2Ljc2NzggMTIuOTczNiAxNi43MjY0IDEyLjk3NDQgMTYuNjg1MiAxMi45NzYxTDE1LjkzNyAxMC43MDgyTDE3LjYyMDUgMTAuMTYxMkwxNC4zMzU0IDhMMTIuOTQ4MSAxMS42NzkzTDE0LjYwNTUgMTEuMTQwOEwxNS4zMzc1IDEzLjM1ODlDMTQuNjI3IDEzLjc1OTcgMTQuMDk2MyAxNC40NDE4IDEzLjg5NjMgMTUuMjUzOUwxMy44OTY2IDE1LjI1MjhMMTEuODcxMiAxNS4yNTI0QzExLjU4NzQgMTQuNDk0MSAxMC44NTYyIDEzLjk1NDMgOS45OTg5IDEzLjk1NDNDOC44OTUyMSAxMy45NTQzIDguMDAwNDkgMTQuODQ5IDguMDAwNDkgMTUuOTUyN0M4LjAwMDQ5IDE3LjA1NjQgOC44OTUyMSAxNy45NTExIDkuOTk4OSAxNy45NTExQzEwLjg1NjQgMTcuOTUxMSAxMS41ODc4IDE3LjQxMSAxMS44NzE0IDE2LjY1MjRMMTMuODg2NiAxNi42NTI4QzE0LjA0MDcgMTcuMzE4OSAxNC40MTY2IDE3Ljg5OTcgMTQuOTMyMyAxOC4zMTM5TDE0LjkzMTQgMTguMzEzM0wxNC4wMjkyIDIwLjA4MTFMMTIuNDczNiAxOS4yODU5TDEzLjI2MzEgMjMuMTM4TDE2Ljg0OCAyMS41MjIxTDE1LjI3NTggMjAuNzE4NEwxNi4xOTggMTguOTExM0wxNi4xOTcgMTguOTExMUMxNi4zOTQ3IDE4Ljk1MjEgMTYuNTk5NiAxOC45NzM2IDE2LjgwOTQgMTguOTczNkMxNy4yOTE2IDE4Ljk3MzYgMTcuNzQ3MiAxOC44NTk4IDE4LjE1MDkgMTguNjU3N0wyMC43ODQyIDIyLjAxOTVMMTkuNDA1NSAyMy4xMTkzTDIzLjI0NjEgMjRaTTE2LjgwOTQgMTQuMzczNkMxNy42OTMxIDE0LjM3MzYgMTguNDA5NCAxNS4wODk5IDE4LjQwOTQgMTUuOTczNkMxOC40MDk0IDE2Ljg1NzMgMTcuNjkzMSAxNy41NzM2IDE2LjgwOTQgMTcuNTczNkMxNS45MjU4IDE3LjU3MzYgMTUuMjA5NCAxNi44NTczIDE1LjIwOTQgMTUuOTczNkMxNS4yMDk0IDE1LjA4OTkgMTUuOTI1OCAxNC4zNzM2IDE2LjgwOTQgMTQuMzczNloiIGZpbGw9IndoaXRlIi8+JiN4YTs8L3N2Zz4=;" vertex="1" parent="PMTPL5XqbX-TbTa32AAc-129">
          <mxGeometry x="713" y="25.730000000000018" width="32" height="32" as="geometry" />
        </mxCell>
        <mxCell id="PMTPL5XqbX-TbTa32AAc-99" value="HA Proxy" style="text;html=1;align=center;verticalAlign=middle;whiteSpace=wrap;rounded=0;" vertex="1" parent="PMTPL5XqbX-TbTa32AAc-129">
          <mxGeometry x="759" y="25.730000000000018" width="60" height="30" as="geometry" />
        </mxCell>
        <mxCell id="PMTPL5XqbX-TbTa32AAc-36" value="" style="rounded=1;whiteSpace=wrap;html=1;fillColor=none;strokeColor=#5282ff;" vertex="1" parent="PMTPL5XqbX-TbTa32AAc-129">
          <mxGeometry x="241" y="12" width="150" height="60" as="geometry" />
        </mxCell>
        <mxCell id="PMTPL5XqbX-TbTa32AAc-37" value="" style="shape=image;verticalLabelPosition=bottom;labelBackgroundColor=#ffffff;verticalAlign=top;aspect=fixed;imageAspect=0;image=data:image/svg+xml,PHN2ZyB4bWxucz0iaHR0cDovL3d3dy53My5vcmcvMjAwMC9zdmciIHdpZHRoPSIzMiIgaGVpZ2h0PSIzMiIgdmlld0JveD0iMCAwIDMyIDMyIiBmaWxsPSJub25lIj4mI3hhOzxwYXRoIGQ9Ik0xNiAzMkMyNC44MzY2IDMyIDMyIDI0LjgzNjYgMzIgMTZDMzIgNy4xNjM0NCAyNC44MzY2IDAgMTYgMEM3LjE2MzQ0IDAgMCA3LjE2MzQ0IDAgMTZDMCAyNC44MzY2IDcuMTYzNDQgMzIgMTYgMzJaIiBmaWxsPSIjNTI4MkZGIi8+JiN4YTs8cGF0aCBmaWxsLXJ1bGU9ImV2ZW5vZGQiIGNsaXAtcnVsZT0iZXZlbm9kZCIgZD0iTTIzLjI0NjEgMjRWMjAuMDU1N0wyMS44Nzg3IDIxLjE0NjVMMTkuMjIyOSAxNy43NTU5QzE5LjU5MTUgMTcuMjU3NiAxOS44MDk0IDE2LjY0MSAxOS44MDk0IDE1Ljk3MzZDMTkuODA5NCAxNS44NDY0IDE5LjgwMTUgMTUuNzIxMSAxOS43ODYyIDE1LjU5ODFMMjEuMzgxOCAxNC45NzkxTDIyLjAxMzIgMTYuNjI0MUwyMy45OTk1IDEzLjIzMDVMMjAuMjUyNiAxMi4wMzc2TDIwLjg4IDEzLjY3MjFMMTkuMjkxNyAxNC4yODgzQzE4Ljc1MTkgMTMuNDk0OCAxNy44NDE1IDEyLjk3MzYgMTYuODA5NCAxMi45NzM2QzE2Ljc2NzggMTIuOTczNiAxNi43MjY0IDEyLjk3NDQgMTYuNjg1MiAxMi45NzYxTDE1LjkzNyAxMC43MDgyTDE3LjYyMDUgMTAuMTYxMkwxNC4zMzU0IDhMMTIuOTQ4MSAxMS42NzkzTDE0LjYwNTUgMTEuMTQwOEwxNS4zMzc1IDEzLjM1ODlDMTQuNjI3IDEzLjc1OTcgMTQuMDk2MyAxNC40NDE4IDEzLjg5NjMgMTUuMjUzOUwxMy44OTY2IDE1LjI1MjhMMTEuODcxMiAxNS4yNTI0QzExLjU4NzQgMTQuNDk0MSAxMC44NTYyIDEzLjk1NDMgOS45OTg5IDEzLjk1NDNDOC44OTUyMSAxMy45NTQzIDguMDAwNDkgMTQuODQ5IDguMDAwNDkgMTUuOTUyN0M4LjAwMDQ5IDE3LjA1NjQgOC44OTUyMSAxNy45NTExIDkuOTk4OSAxNy45NTExQzEwLjg1NjQgMTcuOTUxMSAxMS41ODc4IDE3LjQxMSAxMS44NzE0IDE2LjY1MjRMMTMuODg2NiAxNi42NTI4QzE0LjA0MDcgMTcuMzE4OSAxNC40MTY2IDE3Ljg5OTcgMTQuOTMyMyAxOC4zMTM5TDE0LjkzMTQgMTguMzEzM0wxNC4wMjkyIDIwLjA4MTFMMTIuNDczNiAxOS4yODU5TDEzLjI2MzEgMjMuMTM4TDE2Ljg0OCAyMS41MjIxTDE1LjI3NTggMjAuNzE4NEwxNi4xOTggMTguOTExM0wxNi4xOTcgMTguOTExMUMxNi4zOTQ3IDE4Ljk1MjEgMTYuNTk5NiAxOC45NzM2IDE2LjgwOTQgMTguOTczNkMxNy4yOTE2IDE4Ljk3MzYgMTcuNzQ3MiAxOC44NTk4IDE4LjE1MDkgMTguNjU3N0wyMC43ODQyIDIyLjAxOTVMMTkuNDA1NSAyMy4xMTkzTDIzLjI0NjEgMjRaTTE2LjgwOTQgMTQuMzczNkMxNy42OTMxIDE0LjM3MzYgMTguNDA5NCAxNS4wODk5IDE4LjQwOTQgMTUuOTczNkMxOC40MDk0IDE2Ljg1NzMgMTcuNjkzMSAxNy41NzM2IDE2LjgwOTQgMTcuNTczNkMxNS45MjU4IDE3LjU3MzYgMTUuMjA5NCAxNi44NTczIDE1LjIwOTQgMTUuOTczNkMxNS4yMDk0IDE1LjA4OTkgMTUuOTI1OCAxNC4zNzM2IDE2LjgwOTQgMTQuMzczNloiIGZpbGw9IndoaXRlIi8+JiN4YTs8L3N2Zz4=;" vertex="1" parent="PMTPL5XqbX-TbTa32AAc-129">
          <mxGeometry x="261" y="25.730000000000018" width="32" height="32" as="geometry" />
        </mxCell>
        <mxCell id="PMTPL5XqbX-TbTa32AAc-38" value="HA Proxy" style="text;html=1;align=center;verticalAlign=middle;whiteSpace=wrap;rounded=0;" vertex="1" parent="PMTPL5XqbX-TbTa32AAc-129">
          <mxGeometry x="307" y="25.730000000000018" width="60" height="30" as="geometry" />
        </mxCell>
        <mxCell id="PMTPL5XqbX-TbTa32AAc-141" value="node 1" style="text;html=1;align=center;verticalAlign=middle;whiteSpace=wrap;rounded=0;" vertex="1" parent="PMTPL5XqbX-TbTa32AAc-129">
          <mxGeometry x="174" y="96" width="60" height="30" as="geometry" />
        </mxCell>
        <mxCell id="PMTPL5XqbX-TbTa32AAc-142" value="node 2" style="text;html=1;align=center;verticalAlign=middle;whiteSpace=wrap;rounded=0;" vertex="1" parent="PMTPL5XqbX-TbTa32AAc-129">
          <mxGeometry x="620" y="96" width="60" height="30" as="geometry" />
        </mxCell>
        <mxCell id="PMTPL5XqbX-TbTa32AAc-143" value="node 3" style="text;html=1;align=center;verticalAlign=middle;whiteSpace=wrap;rounded=0;" vertex="1" parent="PMTPL5XqbX-TbTa32AAc-129">
          <mxGeometry x="1050" y="96" width="60" height="30" as="geometry" />
        </mxCell>
        <mxCell id="Zcm5tQwCMB2YyKj0-IPv-38" value="" style="aspect=fixed;sketch=0;html=1;dashed=0;whitespace=wrap;verticalLabelPosition=bottom;verticalAlign=top;fillColor=#2875E2;strokeColor=#ffffff;points=[[0.005,0.63,0],[0.1,0.2,0],[0.9,0.2,0],[0.5,0,0],[0.995,0.63,0],[0.72,0.99,0],[0.5,1,0],[0.28,0.99,0]];shape=mxgraph.kubernetes.icon2;prIcon=group;container=0;" parent="1" vertex="1">
          <mxGeometry x="239" y="140" width="50" height="48" as="geometry" />
        </mxCell>
        <mxCell id="TVqpBcGlLWkRzgnXlcQU-76" value="" style="edgeStyle=orthogonalEdgeStyle;rounded=0;orthogonalLoop=1;jettySize=auto;html=1;" edge="1" parent="1" source="Zcm5tQwCMB2YyKj0-IPv-39" target="TVqpBcGlLWkRzgnXlcQU-73">
          <mxGeometry relative="1" as="geometry" />
        </mxCell>
        <mxCell id="PMTPL5XqbX-TbTa32AAc-125" style="edgeStyle=orthogonalEdgeStyle;rounded=0;orthogonalLoop=1;jettySize=auto;html=1;exitX=0.5;exitY=1;exitDx=0;exitDy=0;exitPerimeter=0;" edge="1" parent="1" source="Zcm5tQwCMB2YyKj0-IPv-39" target="PMTPL5XqbX-TbTa32AAc-85">
          <mxGeometry relative="1" as="geometry" />
        </mxCell>
        <mxCell id="PMTPL5XqbX-TbTa32AAc-127" style="edgeStyle=orthogonalEdgeStyle;rounded=0;orthogonalLoop=1;jettySize=auto;html=1;exitX=0.5;exitY=1;exitDx=0;exitDy=0;exitPerimeter=0;" edge="1" parent="1" source="Zcm5tQwCMB2YyKj0-IPv-39" target="Zcm5tQwCMB2YyKj0-IPv-5">
          <mxGeometry relative="1" as="geometry" />
        </mxCell>
        <mxCell id="Zcm5tQwCMB2YyKj0-IPv-39" style="vsdxID=5;fillColor=none;gradientColor=none;shape=stencil(vVPLEoIgFP0aljgEVuPa6j+YRGUica6U9vdhUKk4LWzG3X0cOPdcOIilTclrgShpDOiLaGVmSsQOiFJZlQKksRFiR8TSXIMoQN+qzOU175F9dNX3/obOnSP9CUoeLktIFL8KJ4flcLZN8NhtRJiDwxsf7VwhQHjAhniCDvNONhi04UbqakSuOBQCWy6cK16MWk0rRB2U/XRKVgMlSRwl+1nyhWI+s0+Xs4KYgNvPtlBKuJvVniX4En+9yfxWVpDx2yc2+Bosl0o5fw77U0PakjMzOz4B);strokeColor=#ff5958;spacingTop=-3;spacingBottom=-3;spacingLeft=-3;spacingRight=-3;points=[[0,0.5,0,0,0],[0.5,0,0,0,0],[0.5,1,0,0,0],[1,0.5,0,0,0]];labelBackgroundColor=none;rounded=0;html=1;whiteSpace=wrap;container=0;" parent="1" vertex="1">
          <mxGeometry x="155" y="130" width="152" height="130" as="geometry" />
        </mxCell>
        <mxCell id="Zcm5tQwCMB2YyKj0-IPv-40" value="&lt;div style=&quot;font-size: 1px&quot;&gt;&lt;font style=&quot;font-size:22.58px;font-family:Arial;color:#000000;direction:ltr;letter-spacing:0px;line-height:120%;opacity:1&quot;&gt;Браузер&amp;nbsp;&lt;/font&gt;&lt;/div&gt;&lt;div style=&quot;font-size: 1px&quot;&gt;&lt;font style=&quot;font-size:22.58px;font-family:Arial;color:#000000;direction:ltr;letter-spacing:0px;line-height:120%;opacity:1&quot;&gt;пользователя&lt;/font&gt;&lt;/div&gt;" style="verticalAlign=bottom;align=center;overflow=width;vsdxID=6;fillColor=none;gradientColor=none;strokeColor=none;spacingTop=-3;spacingBottom=-3;spacingLeft=-3;spacingRight=-3;points=[];labelBackgroundColor=none;rounded=0;html=1;whiteSpace=wrap;container=0;" parent="1" vertex="1">
          <mxGeometry x="155" y="197" width="152" height="53" as="geometry" />
        </mxCell>
        <mxCell id="PMTPL5XqbX-TbTa32AAc-144" style="edgeStyle=orthogonalEdgeStyle;rounded=0;orthogonalLoop=1;jettySize=auto;html=1;exitX=0.5;exitY=1;exitDx=0;exitDy=0;exitPerimeter=0;entryX=0.5;entryY=0;entryDx=0;entryDy=0;" edge="1" parent="1" source="Zcm5tQwCMB2YyKj0-IPv-5" target="PMTPL5XqbX-TbTa32AAc-36">
          <mxGeometry relative="1" as="geometry" />
        </mxCell>
        <mxCell id="Zcm5tQwCMB2YyKj0-IPv-5" style="vsdxID=6;fillColor=none;gradientColor=none;shape=stencil(vVNdD4IgFP01POIQms1nq//BEpVF4q6U9u/DoFJxPdjm2/04cO65cBDL2oo3AlHSGtAX0cncVIgdEKWyrgRIYyPEjohlhQZRgr7VucsbPiCH6Krvww29O0eGE5Q8XJaSaPcqnByWw9k2wWNZRFMHhzc+SlwhQHhATDxBj3kvWwzacCN1PSFXHEqBLRcuFC8nrbYTognKfjol65GSNIn28SL5SjGf2efL2UBMwO1nWykl3M1mzxJ8ib/eZHkrG8j47RMbfA1WSKWcP8f9uSFtyZmZHZ8=);strokeColor=#5282ff;spacingTop=-3;spacingBottom=-3;spacingLeft=-3;spacingRight=-3;points=[[0,0.5,0,0,0],[0.25,0,0,0,0],[0.5,0,0,0,0],[0.5,1,0,0,0],[0.75,0,0,0,0],[1,0.5,0,0,0]];labelBackgroundColor=none;rounded=0;html=1;whiteSpace=wrap;container=0;movable=1;resizable=1;rotatable=1;deletable=1;editable=1;locked=0;connectable=1;" parent="1" vertex="1">
          <mxGeometry x="-383" y="500" width="320" height="310" as="geometry" />
        </mxCell>
        <mxCell id="TVqpBcGlLWkRzgnXlcQU-73" value="&lt;div style=&quot;font-size: 1px&quot;&gt;&lt;font style=&quot;font-size:22.58px;font-family:Arial;color:#000000;direction:ltr;letter-spacing:0px;line-height:120%;opacity:1&quot;&gt;GSLB&lt;/font&gt;&lt;/div&gt;" style="verticalAlign=middle;align=center;overflow=width;vsdxID=5;fillColor=#e3ebff;gradientColor=none;shape=stencil(vVNBDsIgEHwNRwxCjHqu+g9iaUtEaBa09fdSwdpi9dBDb8vOwOwsGcQyW/FaIEqsA3MRjcxdhdgBUSp1JUA6XyF2RCwrDIgSzE3n4VzzjtlVV3PvXmjDPdLdoOQRTrvtavNqnAKXw9mDELkBIhDJaxrJZIy/YRLfbjFvpcVgHHfS6JGu4lAK7GVwoXg5gmwjRP3VjoMpqQcm9tPKs0z0Y6crWcBHqt0PN8tJspXFfmNKdpaBH8tYwML/VPjiE6dCKhXSOMTT+PlWiC47PgE=);strokeColor=none;spacingTop=-3;spacingBottom=-3;spacingLeft=-3;spacingRight=-3;points=[[0,0.5,0,0,0],[0.5,0,0,0,0],[0.5,1,0,0,0],[1,0.5,0,0,0]];labelBackgroundColor=none;rounded=0;html=1;whiteSpace=wrap;" vertex="1" parent="1">
          <mxGeometry x="460" y="153" width="211" height="84" as="geometry" />
        </mxCell>
        <mxCell id="TVqpBcGlLWkRzgnXlcQU-74" value="" style="shape=image;verticalLabelPosition=bottom;verticalAlign=top;imageAspect=0;aspect=fixed;image=data:image/svg+xml,PHN2ZyB4bWxucz0iaHR0cDovL3d3dy53My5vcmcvMjAwMC9zdmciIGZpbGw9Im5vbmUiIHZpZXdCb3g9IjAgMCAzMiAzMiIgaGVpZ2h0PSIzMiIgd2lkdGg9IjMyIj4mI3hhOzxyZWN0IGZpbGw9IiM1MjgyRkYiIHJ4PSIxNiIgaGVpZ2h0PSIzMiIgd2lkdGg9IjMyIi8+JiN4YTs8cGF0aCBmaWxsPSJ3aGl0ZSIgZD0iTTggMjAuMDAyVjExSDEwLjE1QzExLjE3NSAxMSAxMS45MDcgMTEuMjI4IDEyLjM0MyAxMS42ODVDMTIuNzgxIDEyLjE0MyAxMyAxMi45MDcgMTMgMTMuOTc4VjE2LjQ5OEMxMy4wMDQgMTcuODUyIDEyLjgxMiAxOC43NzMgMTIuNDI1IDE5LjI2NEMxMi4wNCAxOS43NTQgMTEuMzExIDIwLjAwMSAxMC4yNCAyMC4wMDFMOCAyMC4wMDJaTTE0IDIwLjAwMlYxMUgxNkwxNy42OTIgMTcuNTk3VjExSDE5VjIwLjAwMUgxN0wxNS4zMSAxMy4zMzlWMjAuMDAxTDE0IDIwLjAwMlpNMjAuNDU1IDE5LjQxNUMyMC4xNTIgMTkuMDI0IDIwIDE4LjM4NiAyMCAxNy41MDRWMTcuMTYySDIxLjI4OFYxNy40MjJDMjEuMjgxIDE3Ljg0NCAyMS4zMzggMTguMTYgMjEuNDU4IDE4LjM3QzIxLjU3NiAxOC41ODEgMjEuNzU4IDE4LjY4NiAyMi4wMDEgMTguNjg2QzIyLjEwNzMgMTguNjkxNyAyMi4yMTMgMTguNjY4MSAyMi4zMDY4IDE4LjYxNzhDMjIuNDAwNiAxOC41Njc2IDIyLjQ3ODkgMTguNDkyNiAyMi41MzMgMTguNDAxQzIyLjY1MSAxOC4yMTEgMjIuNzA4IDE3LjkyNSAyMi43MDggMTcuNTQxQzIyLjcwOCAxNy4yNTYgMjIuNjM4IDE3LjAxMSAyMi40OTMgMTYuODAzQzIyLjM1MiAxNi41OTcgMjIuMTA0IDE2LjM3OCAyMS43NDggMTYuMTQ3QzIxLjEyOCAxNS43NDYgMjAuNjkzIDE1LjM1MyAyMC40NDcgMTQuOTYzQzIwLjE5OSAxNC41OCAyMC4wNzUgMTQuMTAzIDIwLjA3NSAxMy41MzNDMjAuMDc1IDEyLjY4NyAyMC4yNDEgMTIuMDUzIDIwLjU3MyAxMS42MzJDMjAuOTA3IDExLjIxMSAyMS40MDcgMTEgMjIuMDc1IDExQzIyLjc2MSAxMSAyMy4yNDUgMTEuMTk2IDIzLjUyOCAxMS41ODhDMjMuNzk1IDExLjk2IDIzLjkyNCAxMi41NTggMjMuOTIxIDEzLjM4NEwyMy45MjMgMTMuNTc2VjEzLjgzNkgyMi42MzVWMTMuNTc2QzIyLjY0MSAxMy4xMTQgMjIuNTk5IDEyLjc4OCAyMi41MDggMTIuNTk3QzIyLjQxOCAxMi40MDggMjIuMjYgMTIuMzEzIDIyLjAzNSAxMi4zMTNDMjEuOTM1NCAxMi4zMDc0IDIxLjgzNjEgMTIuMzI4OCAyMS43NDc3IDEyLjM3NTJDMjEuNjU5MyAxMi40MjE1IDIxLjU4NTEgMTIuNDkwOSAyMS41MzMgMTIuNTc2QzIxLjQyMSAxMi43NTIgMjEuMzY3IDEzLjAxNSAyMS4zNjcgMTMuMzY2QzIxLjM2NyAxMy42MzggMjEuNDMyIDEzLjg3MSAyMS41NjUgMTQuMDY2QzIxLjY5MyAxNC4yNiAyMS45MjMgMTQuNDYyIDIyLjI1MiAxNC42NzJDMjIuODk5IDE1LjA5NCAyMy4zNTIgMTUuNTA1IDIzLjYxMSAxNS45MDVDMjMuODcxIDE2LjMwNiAyNCAxNi43OTcgMjQgMTcuMzhDMjQgMTguMjU0IDIzLjgzMyAxOC45MSAyMy41MDEgMTkuMzQ1QzIzLjE2OCAxOS43ODEgMjIuNjY4IDE5Ljk5OSAyMiAxOS45OTlDMjEuMjcyIDE5Ljk5OSAyMC43NTYgMTkuODA0IDIwLjQ1NSAxOS40MTVaTTExLjEgMTguMjk1QzExLjI3NiAxOC4wNTggMTEuMzY1IDE3LjYwMiAxMS4zNjUgMTYuOTI2VjEzLjk1NEMxMS4zNjUgMTMuMzQ0IDExLjI2NyAxMi45MjUgMTEuMDY4IDEyLjY5NkMxMC44NzEgMTIuNDY2IDEwLjUwOCAxMi4zNTIgOS45OCAxMi4zNTJIOS42MzZWMTguNjQ4SDEwLjA2NkMxMC41NzcgMTguNjQ4IDEwLjkyMyAxOC41MyAxMS4xIDE4LjI5NlYxOC4yOTVaIi8+JiN4YTs8L3N2Zz4=;" vertex="1" parent="1">
          <mxGeometry x="480" y="179" width="32" height="32" as="geometry" />
        </mxCell>
        <mxCell id="TVqpBcGlLWkRzgnXlcQU-75" value="" style="shape=image;verticalLabelPosition=bottom;verticalAlign=top;imageAspect=0;aspect=fixed;image=data:image/svg+xml,PHN2ZyB4bWxucz0iaHR0cDovL3d3dy53My5vcmcvMjAwMC9zdmciIHdpZHRoPSIzMiIgaGVpZ2h0PSIzMiIgdmlld0JveD0iMCAwIDMyIDMyIiBmaWxsPSJub25lIj4mI3hhOzxwYXRoIGQ9Ik0wIDE2QzAgNy4xNjM0NCA3LjE2MzQ0IDAgMTYgMFYwQzI0LjgzNjYgMCAzMiA3LjE2MzQ0IDMyIDE2VjE2QzMyIDI0LjgzNjYgMjQuODM2NiAzMiAxNiAzMlYzMkM3LjE2MzQ0IDMyIDAgMjQuODM2NiAwIDE2VjE2WiIgZmlsbD0iIzUyODJGRiIvPiYjeGE7PHBhdGggZD0iTTE3IDE3SDE5LjNDMTkuNyAxNy42IDIwLjMgMTggMjEgMThDMjIuMSAxOCAyMyAxNy4xIDIzIDE2QzIzIDE0LjkgMjIuMSAxNCAyMSAxNEMyMC4zIDE0IDE5LjYgMTQuNCAxOS4zIDE1SDE3VjExSDE5LjNDMTkuNyAxMS42IDIwLjMgMTIgMjEgMTJDMjIuMSAxMiAyMyAxMS4xIDIzIDEwQzIzIDguOSAyMi4xIDggMjEgOEMyMC4zIDggMTkuNiA4LjQgMTkuMyA5SDE3QzE1LjkgOSAxNSA5LjkgMTUgMTFWMTUuM0wxMCAxMlYxNUg3VjE3SDEwVjIwTDE1IDE2LjdWMjFDMTUgMjIuMSAxNS45IDIzIDE3IDIzSDE5LjNDMTkuNyAyMy42IDIwLjMgMjQgMjEgMjRDMjIuMSAyNCAyMyAyMy4xIDIzIDIyQzIzIDIwLjkgMjIuMSAyMCAyMSAyMEMyMC4zIDIwIDE5LjYgMjAuNCAxOS4zIDIxSDE3VjE3WiIgZmlsbD0id2hpdGUiLz4mI3hhOzwvc3ZnPg==;" vertex="1" parent="1">
          <mxGeometry x="622" y="179" width="32" height="32" as="geometry" />
        </mxCell>
        <mxCell id="sIEVJlTERtfpzKJd9NOC-10" style="vsdxID=5;fillColor=none;gradientColor=none;shape=stencil(vVPLEoIgFP0aljgEVuPa6j+YRGUica6U9vdhUKk4LWzG3X0cOPdcOIilTclrgShpDOiLaGVmSsQOiFJZlQKksRFiR8TSXIMoQN+qzOU175F9dNX3/obOnSP9CUoeLktIFL8KJ4flcLZN8NhtRJiDwxsf7VwhQHjAhniCDvNONhi04UbqakSuOBQCWy6cK16MWk0rRB2U/XRKVgMlSRwl+1nyhWI+s0+Xs4KYgNvPtlBKuJvVniX4En+9yfxWVpDx2yc2+Bosl0o5fw77U0PakjMzOz4B);strokeColor=#ff5958;spacingTop=-3;spacingBottom=-3;spacingLeft=-3;spacingRight=-3;points=[];labelBackgroundColor=none;rounded=0;html=1;whiteSpace=wrap;" vertex="1" parent="1">
          <mxGeometry x="-370" y="680" width="140" height="104" as="geometry" />
        </mxCell>
        <mxCell id="sIEVJlTERtfpzKJd9NOC-11" value="&lt;div style=&quot;font-size: 1px&quot;&gt;&lt;font style=&quot;font-size:22.58px;font-family:Arial;color:#000000;direction:ltr;letter-spacing:0px;line-height:120%;opacity:1&quot;&gt;InsureTech namespace&lt;br&gt;&lt;/font&gt;&lt;/div&gt;" style="verticalAlign=bottom;align=center;overflow=width;vsdxID=6;fillColor=none;gradientColor=none;strokeColor=none;spacingTop=-3;spacingBottom=-3;spacingLeft=-3;spacingRight=-3;points=[];labelBackgroundColor=none;rounded=0;html=1;whiteSpace=wrap;" vertex="1" parent="1">
          <mxGeometry x="-370" y="720" width="140" height="55" as="geometry" />
        </mxCell>
        <mxCell id="sIEVJlTERtfpzKJd9NOC-15" value="" style="shape=image;verticalLabelPosition=bottom;verticalAlign=top;imageAspect=0;aspect=fixed;image=data:image/svg+xml,PHN2ZyB4bWxucz0iaHR0cDovL3d3dy53My5vcmcvMjAwMC9zdmciIHdpZHRoPSIzMiIgaGVpZ2h0PSIzMiIgdmlld0JveD0iMCAwIDMyIDMyIiBmaWxsPSJub25lIj4mI3hhOzxwYXRoIGQ9Ik0wIDE2QzAgNy4xNjM0NCA3LjE2MzQ0IDAgMTYgMFYwQzI0LjgzNjYgMCAzMiA3LjE2MzQ0IDMyIDE2VjE2QzMyIDI0LjgzNjYgMjQuODM2NiAzMiAxNiAzMlYzMkM3LjE2MzQ0IDMyIDAgMjQuODM2NiAwIDE2VjE2WiIgZmlsbD0iIzUyODJGRiIvPiYjeGE7PHBhdGggZD0iTTExLjk5NSAyNEw3LjAwMDk4IDE3LjczOEw4Ljc4MTk4IDkuOTI3TDE2IDYuNDUzTDIzLjIxOCA5LjkyOEwyNC45OTkgMTcuNzM5TDIwLjAwNSAyNEgxMS45OTVaTTIwIDEzLjE5NkwxNS45OTkgMTAuODk5TDEyIDEzLjE5NlYxOC4xTDE2IDIwLjQwMUwyMCAxOC4xVjEzLjE5NlpNMTguNzggMTMuODk2SDE4Ljc4N0wxNiAxNS40OTlMMTMuMjE0IDEzLjg5NUgxMy4yMTlMMTUuOTk5IDEyLjI5OUwxOC43OCAxMy44OTZaIiBmaWxsPSJ3aGl0ZSIvPiYjeGE7PC9zdmc+;" vertex="1" parent="1">
          <mxGeometry x="-316" y="688" width="32" height="32" as="geometry" />
        </mxCell>
        <mxCell id="PMTPL5XqbX-TbTa32AAc-3" value="" style="shape=image;verticalLabelPosition=bottom;labelBackgroundColor=#ffffff;verticalAlign=top;aspect=fixed;imageAspect=0;image=data:image/svg+xml,PHN2ZyB4bWxucz0iaHR0cDovL3d3dy53My5vcmcvMjAwMC9zdmciIHdpZHRoPSIzMiIgaGVpZ2h0PSIzMiIgdmlld0JveD0iMCAwIDMyIDMyIiBmaWxsPSJub25lIj4mI3hhOzxwYXRoIGQ9Ik0xNiAzMkMyNC44MzY2IDMyIDMyIDI0LjgzNjYgMzIgMTZDMzIgNy4xNjM0NCAyNC44MzY2IDAgMTYgMEM3LjE2MzQ0IDAgMCA3LjE2MzQ0IDAgMTZDMCAyNC44MzY2IDcuMTYzNDQgMzIgMTYgMzJaIiBmaWxsPSIjNTI4MkZGIi8+JiN4YTs8cGF0aCBmaWxsLXJ1bGU9ImV2ZW5vZGQiIGNsaXAtcnVsZT0iZXZlbm9kZCIgZD0iTTIzLjI0NjEgMjRWMjAuMDU1N0wyMS44Nzg3IDIxLjE0NjVMMTkuMjIyOSAxNy43NTU5QzE5LjU5MTUgMTcuMjU3NiAxOS44MDk0IDE2LjY0MSAxOS44MDk0IDE1Ljk3MzZDMTkuODA5NCAxNS44NDY0IDE5LjgwMTUgMTUuNzIxMSAxOS43ODYyIDE1LjU5ODFMMjEuMzgxOCAxNC45NzkxTDIyLjAxMzIgMTYuNjI0MUwyMy45OTk1IDEzLjIzMDVMMjAuMjUyNiAxMi4wMzc2TDIwLjg4IDEzLjY3MjFMMTkuMjkxNyAxNC4yODgzQzE4Ljc1MTkgMTMuNDk0OCAxNy44NDE1IDEyLjk3MzYgMTYuODA5NCAxMi45NzM2QzE2Ljc2NzggMTIuOTczNiAxNi43MjY0IDEyLjk3NDQgMTYuNjg1MiAxMi45NzYxTDE1LjkzNyAxMC43MDgyTDE3LjYyMDUgMTAuMTYxMkwxNC4zMzU0IDhMMTIuOTQ4MSAxMS42NzkzTDE0LjYwNTUgMTEuMTQwOEwxNS4zMzc1IDEzLjM1ODlDMTQuNjI3IDEzLjc1OTcgMTQuMDk2MyAxNC40NDE4IDEzLjg5NjMgMTUuMjUzOUwxMy44OTY2IDE1LjI1MjhMMTEuODcxMiAxNS4yNTI0QzExLjU4NzQgMTQuNDk0MSAxMC44NTYyIDEzLjk1NDMgOS45OTg5IDEzLjk1NDNDOC44OTUyMSAxMy45NTQzIDguMDAwNDkgMTQuODQ5IDguMDAwNDkgMTUuOTUyN0M4LjAwMDQ5IDE3LjA1NjQgOC44OTUyMSAxNy45NTExIDkuOTk4OSAxNy45NTExQzEwLjg1NjQgMTcuOTUxMSAxMS41ODc4IDE3LjQxMSAxMS44NzE0IDE2LjY1MjRMMTMuODg2NiAxNi42NTI4QzE0LjA0MDcgMTcuMzE4OSAxNC40MTY2IDE3Ljg5OTcgMTQuOTMyMyAxOC4zMTM5TDE0LjkzMTQgMTguMzEzM0wxNC4wMjkyIDIwLjA4MTFMMTIuNDczNiAxOS4yODU5TDEzLjI2MzEgMjMuMTM4TDE2Ljg0OCAyMS41MjIxTDE1LjI3NTggMjAuNzE4NEwxNi4xOTggMTguOTExM0wxNi4xOTcgMTguOTExMUMxNi4zOTQ3IDE4Ljk1MjEgMTYuNTk5NiAxOC45NzM2IDE2LjgwOTQgMTguOTczNkMxNy4yOTE2IDE4Ljk3MzYgMTcuNzQ3MiAxOC44NTk4IDE4LjE1MDkgMTguNjU3N0wyMC43ODQyIDIyLjAxOTVMMTkuNDA1NSAyMy4xMTkzTDIzLjI0NjEgMjRaTTE2LjgwOTQgMTQuMzczNkMxNy42OTMxIDE0LjM3MzYgMTguNDA5NCAxNS4wODk5IDE4LjQwOTQgMTUuOTczNkMxOC40MDk0IDE2Ljg1NzMgMTcuNjkzMSAxNy41NzM2IDE2LjgwOTQgMTcuNTczNkMxNS45MjU4IDE3LjU3MzYgMTUuMjA5NCAxNi44NTczIDE1LjIwOTQgMTUuOTczNkMxNS4yMDk0IDE1LjA4OTkgMTUuOTI1OCAxNC4zNzM2IDE2LjgwOTQgMTQuMzczNloiIGZpbGw9IndoaXRlIi8+JiN4YTs8L3N2Zz4=;" vertex="1" parent="1">
          <mxGeometry x="-233.89" y="540" width="32" height="32" as="geometry" />
        </mxCell>
        <mxCell id="PMTPL5XqbX-TbTa32AAc-7" style="vsdxID=5;fillColor=none;gradientColor=none;shape=stencil(vVPLEoIgFP0aljgEVuPa6j+YRGUica6U9vdhUKk4LWzG3X0cOPdcOIilTclrgShpDOiLaGVmSsQOiFJZlQKksRFiR8TSXIMoQN+qzOU175F9dNX3/obOnSP9CUoeLktIFL8KJ4flcLZN8NhtRJiDwxsf7VwhQHjAhniCDvNONhi04UbqakSuOBQCWy6cK16MWk0rRB2U/XRKVgMlSRwl+1nyhWI+s0+Xs4KYgNvPtlBKuJvVniX4En+9yfxWVpDx2yc2+Bosl0o5fw77U0PakjMzOz4B);strokeColor=#ff5958;spacingTop=-3;spacingBottom=-3;spacingLeft=-3;spacingRight=-3;points=[];labelBackgroundColor=none;rounded=0;html=1;whiteSpace=wrap;" vertex="1" parent="1">
          <mxGeometry x="-213" y="680" width="140" height="104" as="geometry" />
        </mxCell>
        <mxCell id="PMTPL5XqbX-TbTa32AAc-8" value="&lt;div style=&quot;font-size: 1px&quot;&gt;&lt;font style=&quot;font-size:22.58px;font-family:Arial;color:#000000;direction:ltr;letter-spacing:0px;line-height:120%;opacity:1&quot;&gt;InsureTech namespace&lt;br&gt;&lt;/font&gt;&lt;/div&gt;" style="verticalAlign=bottom;align=center;overflow=width;vsdxID=6;fillColor=none;gradientColor=none;strokeColor=none;spacingTop=-3;spacingBottom=-3;spacingLeft=-3;spacingRight=-3;points=[];labelBackgroundColor=none;rounded=0;html=1;whiteSpace=wrap;" vertex="1" parent="1">
          <mxGeometry x="-213" y="720" width="140" height="55" as="geometry" />
        </mxCell>
        <mxCell id="PMTPL5XqbX-TbTa32AAc-9" value="" style="shape=image;verticalLabelPosition=bottom;verticalAlign=top;imageAspect=0;aspect=fixed;image=data:image/svg+xml,PHN2ZyB4bWxucz0iaHR0cDovL3d3dy53My5vcmcvMjAwMC9zdmciIHdpZHRoPSIzMiIgaGVpZ2h0PSIzMiIgdmlld0JveD0iMCAwIDMyIDMyIiBmaWxsPSJub25lIj4mI3hhOzxwYXRoIGQ9Ik0wIDE2QzAgNy4xNjM0NCA3LjE2MzQ0IDAgMTYgMFYwQzI0LjgzNjYgMCAzMiA3LjE2MzQ0IDMyIDE2VjE2QzMyIDI0LjgzNjYgMjQuODM2NiAzMiAxNiAzMlYzMkM3LjE2MzQ0IDMyIDAgMjQuODM2NiAwIDE2VjE2WiIgZmlsbD0iIzUyODJGRiIvPiYjeGE7PHBhdGggZD0iTTExLjk5NSAyNEw3LjAwMDk4IDE3LjczOEw4Ljc4MTk4IDkuOTI3TDE2IDYuNDUzTDIzLjIxOCA5LjkyOEwyNC45OTkgMTcuNzM5TDIwLjAwNSAyNEgxMS45OTVaTTIwIDEzLjE5NkwxNS45OTkgMTAuODk5TDEyIDEzLjE5NlYxOC4xTDE2IDIwLjQwMUwyMCAxOC4xVjEzLjE5NlpNMTguNzggMTMuODk2SDE4Ljc4N0wxNiAxNS40OTlMMTMuMjE0IDEzLjg5NUgxMy4yMTlMMTUuOTk5IDEyLjI5OUwxOC43OCAxMy44OTZaIiBmaWxsPSJ3aGl0ZSIvPiYjeGE7PC9zdmc+;" vertex="1" parent="1">
          <mxGeometry x="-159" y="688" width="32" height="32" as="geometry" />
        </mxCell>
        <mxCell id="PMTPL5XqbX-TbTa32AAc-10" style="edgeStyle=orthogonalEdgeStyle;rounded=0;orthogonalLoop=1;jettySize=auto;html=1;exitX=0.25;exitY=1;exitDx=0;exitDy=0;entryX=0.488;entryY=0.014;entryDx=0;entryDy=0;entryPerimeter=0;" edge="1" parent="1" source="PMTPL5XqbX-TbTa32AAc-3" target="sIEVJlTERtfpzKJd9NOC-10">
          <mxGeometry relative="1" as="geometry" />
        </mxCell>
        <mxCell id="PMTPL5XqbX-TbTa32AAc-11" style="edgeStyle=orthogonalEdgeStyle;rounded=0;orthogonalLoop=1;jettySize=auto;html=1;exitX=0.75;exitY=1;exitDx=0;exitDy=0;entryX=0.539;entryY=-0.002;entryDx=0;entryDy=0;entryPerimeter=0;" edge="1" parent="1" source="PMTPL5XqbX-TbTa32AAc-3" target="PMTPL5XqbX-TbTa32AAc-7">
          <mxGeometry relative="1" as="geometry" />
        </mxCell>
        <mxCell id="PMTPL5XqbX-TbTa32AAc-15" value="Kubernetes cluster" style="text;html=1;align=center;verticalAlign=middle;whiteSpace=wrap;rounded=0;" vertex="1" parent="1">
          <mxGeometry x="-370" y="520" width="60" height="30" as="geometry" />
        </mxCell>
        <mxCell id="PMTPL5XqbX-TbTa32AAc-16" value="Load balancer" style="text;html=1;align=center;verticalAlign=middle;whiteSpace=wrap;rounded=0;" vertex="1" parent="1">
          <mxGeometry x="-192" y="540" width="60" height="30" as="geometry" />
        </mxCell>
        <mxCell id="PMTPL5XqbX-TbTa32AAc-41" value="" style="shape=image;verticalLabelPosition=bottom;verticalAlign=top;imageAspect=0;aspect=fixed;image=data:image/svg+xml,PHN2ZyB4bWxucz0iaHR0cDovL3d3dy53My5vcmcvMjAwMC9zdmciIHdpZHRoPSIzMiIgaGVpZ2h0PSIzMiIgdmlld0JveD0iMCAwIDMyIDMyIiBmaWxsPSJub25lIj4mI3hhOzxwYXRoIGQ9Ik0wIDE2QzAgNy4xNjM0NCA3LjE2MzQ0IDAgMTYgMFYwQzI0LjgzNjYgMCAzMiA3LjE2MzQ0IDMyIDE2VjE2QzMyIDI0LjgzNjYgMjQuODM2NiAzMiAxNiAzMlYzMkM3LjE2MzQ0IDMyIDAgMjQuODM2NiAwIDE2VjE2WiIgZmlsbD0iIzUyODJGRiIvPiYjeGE7PHBhdGggZmlsbC1ydWxlPSJldmVub2RkIiBjbGlwLXJ1bGU9ImV2ZW5vZGQiIGQ9Ik0xMyA4SDE4QzIxLjMgOCAyNCAxMC43IDI0IDE0VjI0SDIwVjIwSDIyVjE5SDE4LjZDMTUuNSAxOSAxMyAxNi41IDEzIDEzLjRWOFpNMTkgMTdIMjFWMTVIMTlWMTdaTTEyIDkuMDk5OThWMTMuNEMxMiAxNi44IDE0LjYgMTkuNyAxOCAyMC4xVjIwLjZDMTggMjIgMTUuOCAyMy4xIDEzIDIzLjFDMTAuMiAyMy4xIDggMjIgOCAyMC42VjExLjZDOCAxMC4zIDkuNyA5LjI5OTk4IDEyIDkuMDk5OThaIiBmaWxsPSJ3aGl0ZSIvPiYjeGE7PC9zdmc+;container=0;" vertex="1" parent="1">
          <mxGeometry x="-292" y="982.66" width="36.26923076923077" height="36.26923076923077" as="geometry" />
        </mxCell>
        <mxCell id="PMTPL5XqbX-TbTa32AAc-137" style="edgeStyle=orthogonalEdgeStyle;rounded=0;orthogonalLoop=1;jettySize=auto;html=1;exitX=1;exitY=0.5;exitDx=0;exitDy=0;exitPerimeter=0;startArrow=classic;startFill=1;dashed=1;" edge="1" parent="1" source="PMTPL5XqbX-TbTa32AAc-43" target="PMTPL5XqbX-TbTa32AAc-101">
          <mxGeometry relative="1" as="geometry" />
        </mxCell>
        <mxCell id="PMTPL5XqbX-TbTa32AAc-139" value="Потоковая репликация" style="edgeLabel;html=1;align=center;verticalAlign=middle;resizable=0;points=[];" vertex="1" connectable="0" parent="PMTPL5XqbX-TbTa32AAc-137">
          <mxGeometry x="0.1498" y="-3" relative="1" as="geometry">
            <mxPoint as="offset" />
          </mxGeometry>
        </mxCell>
        <mxCell id="PMTPL5XqbX-TbTa32AAc-43" value="&amp;nbsp; &amp;nbsp; &amp;nbsp; &amp;nbsp; &amp;nbsp;PostgreSql" style="shape=cylinder3;whiteSpace=wrap;html=1;boundedLbl=1;backgroundOutline=1;size=15;fillColor=none;strokeColor=#81a4ff;" vertex="1" parent="1">
          <mxGeometry x="-298" y="950" width="126" height="80" as="geometry" />
        </mxCell>
        <mxCell id="PMTPL5XqbX-TbTa32AAc-45" style="edgeStyle=orthogonalEdgeStyle;rounded=0;orthogonalLoop=1;jettySize=auto;html=1;exitX=0.5;exitY=1;exitDx=0;exitDy=0;entryX=0.5;entryY=0;entryDx=0;entryDy=0;entryPerimeter=0;" edge="1" parent="1" source="PMTPL5XqbX-TbTa32AAc-36" target="PMTPL5XqbX-TbTa32AAc-43">
          <mxGeometry relative="1" as="geometry" />
        </mxCell>
        <mxCell id="PMTPL5XqbX-TbTa32AAc-145" style="edgeStyle=orthogonalEdgeStyle;rounded=0;orthogonalLoop=1;jettySize=auto;html=1;exitX=0.5;exitY=1;exitDx=0;exitDy=0;exitPerimeter=0;entryX=0.5;entryY=0;entryDx=0;entryDy=0;" edge="1" parent="1" source="PMTPL5XqbX-TbTa32AAc-85" target="PMTPL5XqbX-TbTa32AAc-97">
          <mxGeometry relative="1" as="geometry" />
        </mxCell>
        <mxCell id="PMTPL5XqbX-TbTa32AAc-85" style="vsdxID=6;fillColor=none;gradientColor=none;shape=stencil(vVNdD4IgFP01POIQms1nq//BEpVF4q6U9u/DoFJxPdjm2/04cO65cBDL2oo3AlHSGtAX0cncVIgdEKWyrgRIYyPEjohlhQZRgr7VucsbPiCH6Krvww29O0eGE5Q8XJaSaPcqnByWw9k2wWNZRFMHhzc+SlwhQHhATDxBj3kvWwzacCN1PSFXHEqBLRcuFC8nrbYTognKfjol65GSNIn28SL5SjGf2efL2UBMwO1nWykl3M1mzxJ8ib/eZHkrG8j47RMbfA1WSKWcP8f9uSFtyZmZHZ8=);strokeColor=#5282ff;spacingTop=-3;spacingBottom=-3;spacingLeft=-3;spacingRight=-3;points=[[0,0.5,0,0,0],[0.25,0,0,0,0],[0.5,0,0,0,0],[0.5,1,0,0,0],[0.75,0,0,0,0],[1,0.5,0,0,0]];labelBackgroundColor=none;rounded=0;html=1;whiteSpace=wrap;container=0;movable=1;resizable=1;rotatable=1;deletable=1;editable=1;locked=0;connectable=1;" vertex="1" parent="1">
          <mxGeometry x="70" y="500" width="320" height="310" as="geometry" />
        </mxCell>
        <mxCell id="PMTPL5XqbX-TbTa32AAc-86" style="vsdxID=5;fillColor=none;gradientColor=none;shape=stencil(vVPLEoIgFP0aljgEVuPa6j+YRGUica6U9vdhUKk4LWzG3X0cOPdcOIilTclrgShpDOiLaGVmSsQOiFJZlQKksRFiR8TSXIMoQN+qzOU175F9dNX3/obOnSP9CUoeLktIFL8KJ4flcLZN8NhtRJiDwxsf7VwhQHjAhniCDvNONhi04UbqakSuOBQCWy6cK16MWk0rRB2U/XRKVgMlSRwl+1nyhWI+s0+Xs4KYgNvPtlBKuJvVniX4En+9yfxWVpDx2yc2+Bosl0o5fw77U0PakjMzOz4B);strokeColor=#ff5958;spacingTop=-3;spacingBottom=-3;spacingLeft=-3;spacingRight=-3;points=[];labelBackgroundColor=none;rounded=0;html=1;whiteSpace=wrap;" vertex="1" parent="1">
          <mxGeometry x="83" y="680" width="140" height="104" as="geometry" />
        </mxCell>
        <mxCell id="PMTPL5XqbX-TbTa32AAc-87" value="&lt;div style=&quot;font-size: 1px&quot;&gt;&lt;font style=&quot;font-size:22.58px;font-family:Arial;color:#000000;direction:ltr;letter-spacing:0px;line-height:120%;opacity:1&quot;&gt;InsureTech namespace&lt;br&gt;&lt;/font&gt;&lt;/div&gt;" style="verticalAlign=bottom;align=center;overflow=width;vsdxID=6;fillColor=none;gradientColor=none;strokeColor=none;spacingTop=-3;spacingBottom=-3;spacingLeft=-3;spacingRight=-3;points=[];labelBackgroundColor=none;rounded=0;html=1;whiteSpace=wrap;" vertex="1" parent="1">
          <mxGeometry x="83" y="720" width="140" height="55" as="geometry" />
        </mxCell>
        <mxCell id="PMTPL5XqbX-TbTa32AAc-88" value="" style="shape=image;verticalLabelPosition=bottom;verticalAlign=top;imageAspect=0;aspect=fixed;image=data:image/svg+xml,PHN2ZyB4bWxucz0iaHR0cDovL3d3dy53My5vcmcvMjAwMC9zdmciIHdpZHRoPSIzMiIgaGVpZ2h0PSIzMiIgdmlld0JveD0iMCAwIDMyIDMyIiBmaWxsPSJub25lIj4mI3hhOzxwYXRoIGQ9Ik0wIDE2QzAgNy4xNjM0NCA3LjE2MzQ0IDAgMTYgMFYwQzI0LjgzNjYgMCAzMiA3LjE2MzQ0IDMyIDE2VjE2QzMyIDI0LjgzNjYgMjQuODM2NiAzMiAxNiAzMlYzMkM3LjE2MzQ0IDMyIDAgMjQuODM2NiAwIDE2VjE2WiIgZmlsbD0iIzUyODJGRiIvPiYjeGE7PHBhdGggZD0iTTExLjk5NSAyNEw3LjAwMDk4IDE3LjczOEw4Ljc4MTk4IDkuOTI3TDE2IDYuNDUzTDIzLjIxOCA5LjkyOEwyNC45OTkgMTcuNzM5TDIwLjAwNSAyNEgxMS45OTVaTTIwIDEzLjE5NkwxNS45OTkgMTAuODk5TDEyIDEzLjE5NlYxOC4xTDE2IDIwLjQwMUwyMCAxOC4xVjEzLjE5NlpNMTguNzggMTMuODk2SDE4Ljc4N0wxNiAxNS40OTlMMTMuMjE0IDEzLjg5NUgxMy4yMTlMMTUuOTk5IDEyLjI5OUwxOC43OCAxMy44OTZaIiBmaWxsPSJ3aGl0ZSIvPiYjeGE7PC9zdmc+;" vertex="1" parent="1">
          <mxGeometry x="137" y="688" width="32" height="32" as="geometry" />
        </mxCell>
        <mxCell id="PMTPL5XqbX-TbTa32AAc-89" value="" style="shape=image;verticalLabelPosition=bottom;labelBackgroundColor=#ffffff;verticalAlign=top;aspect=fixed;imageAspect=0;image=data:image/svg+xml,PHN2ZyB4bWxucz0iaHR0cDovL3d3dy53My5vcmcvMjAwMC9zdmciIHdpZHRoPSIzMiIgaGVpZ2h0PSIzMiIgdmlld0JveD0iMCAwIDMyIDMyIiBmaWxsPSJub25lIj4mI3hhOzxwYXRoIGQ9Ik0xNiAzMkMyNC44MzY2IDMyIDMyIDI0LjgzNjYgMzIgMTZDMzIgNy4xNjM0NCAyNC44MzY2IDAgMTYgMEM3LjE2MzQ0IDAgMCA3LjE2MzQ0IDAgMTZDMCAyNC44MzY2IDcuMTYzNDQgMzIgMTYgMzJaIiBmaWxsPSIjNTI4MkZGIi8+JiN4YTs8cGF0aCBmaWxsLXJ1bGU9ImV2ZW5vZGQiIGNsaXAtcnVsZT0iZXZlbm9kZCIgZD0iTTIzLjI0NjEgMjRWMjAuMDU1N0wyMS44Nzg3IDIxLjE0NjVMMTkuMjIyOSAxNy43NTU5QzE5LjU5MTUgMTcuMjU3NiAxOS44MDk0IDE2LjY0MSAxOS44MDk0IDE1Ljk3MzZDMTkuODA5NCAxNS44NDY0IDE5LjgwMTUgMTUuNzIxMSAxOS43ODYyIDE1LjU5ODFMMjEuMzgxOCAxNC45NzkxTDIyLjAxMzIgMTYuNjI0MUwyMy45OTk1IDEzLjIzMDVMMjAuMjUyNiAxMi4wMzc2TDIwLjg4IDEzLjY3MjFMMTkuMjkxNyAxNC4yODgzQzE4Ljc1MTkgMTMuNDk0OCAxNy44NDE1IDEyLjk3MzYgMTYuODA5NCAxMi45NzM2QzE2Ljc2NzggMTIuOTczNiAxNi43MjY0IDEyLjk3NDQgMTYuNjg1MiAxMi45NzYxTDE1LjkzNyAxMC43MDgyTDE3LjYyMDUgMTAuMTYxMkwxNC4zMzU0IDhMMTIuOTQ4MSAxMS42NzkzTDE0LjYwNTUgMTEuMTQwOEwxNS4zMzc1IDEzLjM1ODlDMTQuNjI3IDEzLjc1OTcgMTQuMDk2MyAxNC40NDE4IDEzLjg5NjMgMTUuMjUzOUwxMy44OTY2IDE1LjI1MjhMMTEuODcxMiAxNS4yNTI0QzExLjU4NzQgMTQuNDk0MSAxMC44NTYyIDEzLjk1NDMgOS45OTg5IDEzLjk1NDNDOC44OTUyMSAxMy45NTQzIDguMDAwNDkgMTQuODQ5IDguMDAwNDkgMTUuOTUyN0M4LjAwMDQ5IDE3LjA1NjQgOC44OTUyMSAxNy45NTExIDkuOTk4OSAxNy45NTExQzEwLjg1NjQgMTcuOTUxMSAxMS41ODc4IDE3LjQxMSAxMS44NzE0IDE2LjY1MjRMMTMuODg2NiAxNi42NTI4QzE0LjA0MDcgMTcuMzE4OSAxNC40MTY2IDE3Ljg5OTcgMTQuOTMyMyAxOC4zMTM5TDE0LjkzMTQgMTguMzEzM0wxNC4wMjkyIDIwLjA4MTFMMTIuNDczNiAxOS4yODU5TDEzLjI2MzEgMjMuMTM4TDE2Ljg0OCAyMS41MjIxTDE1LjI3NTggMjAuNzE4NEwxNi4xOTggMTguOTExM0wxNi4xOTcgMTguOTExMUMxNi4zOTQ3IDE4Ljk1MjEgMTYuNTk5NiAxOC45NzM2IDE2LjgwOTQgMTguOTczNkMxNy4yOTE2IDE4Ljk3MzYgMTcuNzQ3MiAxOC44NTk4IDE4LjE1MDkgMTguNjU3N0wyMC43ODQyIDIyLjAxOTVMMTkuNDA1NSAyMy4xMTkzTDIzLjI0NjEgMjRaTTE2LjgwOTQgMTQuMzczNkMxNy42OTMxIDE0LjM3MzYgMTguNDA5NCAxNS4wODk5IDE4LjQwOTQgMTUuOTczNkMxOC40MDk0IDE2Ljg1NzMgMTcuNjkzMSAxNy41NzM2IDE2LjgwOTQgMTcuNTczNkMxNS45MjU4IDE3LjU3MzYgMTUuMjA5NCAxNi44NTczIDE1LjIwOTQgMTUuOTczNkMxNS4yMDk0IDE1LjA4OTkgMTUuOTI1OCAxNC4zNzM2IDE2LjgwOTQgMTQuMzczNloiIGZpbGw9IndoaXRlIi8+JiN4YTs8L3N2Zz4=;" vertex="1" parent="1">
          <mxGeometry x="219.11" y="540" width="32" height="32" as="geometry" />
        </mxCell>
        <mxCell id="PMTPL5XqbX-TbTa32AAc-90" style="vsdxID=5;fillColor=none;gradientColor=none;shape=stencil(vVPLEoIgFP0aljgEVuPa6j+YRGUica6U9vdhUKk4LWzG3X0cOPdcOIilTclrgShpDOiLaGVmSsQOiFJZlQKksRFiR8TSXIMoQN+qzOU175F9dNX3/obOnSP9CUoeLktIFL8KJ4flcLZN8NhtRJiDwxsf7VwhQHjAhniCDvNONhi04UbqakSuOBQCWy6cK16MWk0rRB2U/XRKVgMlSRwl+1nyhWI+s0+Xs4KYgNvPtlBKuJvVniX4En+9yfxWVpDx2yc2+Bosl0o5fw77U0PakjMzOz4B);strokeColor=#ff5958;spacingTop=-3;spacingBottom=-3;spacingLeft=-3;spacingRight=-3;points=[];labelBackgroundColor=none;rounded=0;html=1;whiteSpace=wrap;" vertex="1" parent="1">
          <mxGeometry x="240" y="680" width="140" height="104" as="geometry" />
        </mxCell>
        <mxCell id="PMTPL5XqbX-TbTa32AAc-91" value="&lt;div style=&quot;font-size: 1px&quot;&gt;&lt;font style=&quot;font-size:22.58px;font-family:Arial;color:#000000;direction:ltr;letter-spacing:0px;line-height:120%;opacity:1&quot;&gt;InsureTech namespace&lt;br&gt;&lt;/font&gt;&lt;/div&gt;" style="verticalAlign=bottom;align=center;overflow=width;vsdxID=6;fillColor=none;gradientColor=none;strokeColor=none;spacingTop=-3;spacingBottom=-3;spacingLeft=-3;spacingRight=-3;points=[];labelBackgroundColor=none;rounded=0;html=1;whiteSpace=wrap;" vertex="1" parent="1">
          <mxGeometry x="240" y="720" width="140" height="55" as="geometry" />
        </mxCell>
        <mxCell id="PMTPL5XqbX-TbTa32AAc-92" value="" style="shape=image;verticalLabelPosition=bottom;verticalAlign=top;imageAspect=0;aspect=fixed;image=data:image/svg+xml,PHN2ZyB4bWxucz0iaHR0cDovL3d3dy53My5vcmcvMjAwMC9zdmciIHdpZHRoPSIzMiIgaGVpZ2h0PSIzMiIgdmlld0JveD0iMCAwIDMyIDMyIiBmaWxsPSJub25lIj4mI3hhOzxwYXRoIGQ9Ik0wIDE2QzAgNy4xNjM0NCA3LjE2MzQ0IDAgMTYgMFYwQzI0LjgzNjYgMCAzMiA3LjE2MzQ0IDMyIDE2VjE2QzMyIDI0LjgzNjYgMjQuODM2NiAzMiAxNiAzMlYzMkM3LjE2MzQ0IDMyIDAgMjQuODM2NiAwIDE2VjE2WiIgZmlsbD0iIzUyODJGRiIvPiYjeGE7PHBhdGggZD0iTTExLjk5NSAyNEw3LjAwMDk4IDE3LjczOEw4Ljc4MTk4IDkuOTI3TDE2IDYuNDUzTDIzLjIxOCA5LjkyOEwyNC45OTkgMTcuNzM5TDIwLjAwNSAyNEgxMS45OTVaTTIwIDEzLjE5NkwxNS45OTkgMTAuODk5TDEyIDEzLjE5NlYxOC4xTDE2IDIwLjQwMUwyMCAxOC4xVjEzLjE5NlpNMTguNzggMTMuODk2SDE4Ljc4N0wxNiAxNS40OTlMMTMuMjE0IDEzLjg5NUgxMy4yMTlMMTUuOTk5IDEyLjI5OUwxOC43OCAxMy44OTZaIiBmaWxsPSJ3aGl0ZSIvPiYjeGE7PC9zdmc+;" vertex="1" parent="1">
          <mxGeometry x="294" y="688" width="32" height="32" as="geometry" />
        </mxCell>
        <mxCell id="PMTPL5XqbX-TbTa32AAc-93" style="edgeStyle=orthogonalEdgeStyle;rounded=0;orthogonalLoop=1;jettySize=auto;html=1;exitX=0.25;exitY=1;exitDx=0;exitDy=0;entryX=0.488;entryY=0.014;entryDx=0;entryDy=0;entryPerimeter=0;" edge="1" parent="1" source="PMTPL5XqbX-TbTa32AAc-89" target="PMTPL5XqbX-TbTa32AAc-86">
          <mxGeometry relative="1" as="geometry" />
        </mxCell>
        <mxCell id="PMTPL5XqbX-TbTa32AAc-94" style="edgeStyle=orthogonalEdgeStyle;rounded=0;orthogonalLoop=1;jettySize=auto;html=1;exitX=0.75;exitY=1;exitDx=0;exitDy=0;entryX=0.539;entryY=-0.002;entryDx=0;entryDy=0;entryPerimeter=0;" edge="1" parent="1" source="PMTPL5XqbX-TbTa32AAc-89" target="PMTPL5XqbX-TbTa32AAc-90">
          <mxGeometry relative="1" as="geometry" />
        </mxCell>
        <mxCell id="PMTPL5XqbX-TbTa32AAc-95" value="Kubernetes cluster" style="text;html=1;align=center;verticalAlign=middle;whiteSpace=wrap;rounded=0;" vertex="1" parent="1">
          <mxGeometry x="83" y="520" width="60" height="30" as="geometry" />
        </mxCell>
        <mxCell id="PMTPL5XqbX-TbTa32AAc-96" value="Load balancer" style="text;html=1;align=center;verticalAlign=middle;whiteSpace=wrap;rounded=0;" vertex="1" parent="1">
          <mxGeometry x="261" y="540" width="60" height="30" as="geometry" />
        </mxCell>
        <mxCell id="PMTPL5XqbX-TbTa32AAc-100" value="" style="shape=image;verticalLabelPosition=bottom;verticalAlign=top;imageAspect=0;aspect=fixed;image=data:image/svg+xml,PHN2ZyB4bWxucz0iaHR0cDovL3d3dy53My5vcmcvMjAwMC9zdmciIHdpZHRoPSIzMiIgaGVpZ2h0PSIzMiIgdmlld0JveD0iMCAwIDMyIDMyIiBmaWxsPSJub25lIj4mI3hhOzxwYXRoIGQ9Ik0wIDE2QzAgNy4xNjM0NCA3LjE2MzQ0IDAgMTYgMFYwQzI0LjgzNjYgMCAzMiA3LjE2MzQ0IDMyIDE2VjE2QzMyIDI0LjgzNjYgMjQuODM2NiAzMiAxNiAzMlYzMkM3LjE2MzQ0IDMyIDAgMjQuODM2NiAwIDE2VjE2WiIgZmlsbD0iIzUyODJGRiIvPiYjeGE7PHBhdGggZmlsbC1ydWxlPSJldmVub2RkIiBjbGlwLXJ1bGU9ImV2ZW5vZGQiIGQ9Ik0xMyA4SDE4QzIxLjMgOCAyNCAxMC43IDI0IDE0VjI0SDIwVjIwSDIyVjE5SDE4LjZDMTUuNSAxOSAxMyAxNi41IDEzIDEzLjRWOFpNMTkgMTdIMjFWMTVIMTlWMTdaTTEyIDkuMDk5OThWMTMuNEMxMiAxNi44IDE0LjYgMTkuNyAxOCAyMC4xVjIwLjZDMTggMjIgMTUuOCAyMy4xIDEzIDIzLjFDMTAuMiAyMy4xIDggMjIgOCAyMC42VjExLjZDOCAxMC4zIDkuNyA5LjI5OTk4IDEyIDkuMDk5OThaIiBmaWxsPSJ3aGl0ZSIvPiYjeGE7PC9zdmc+;container=0;" vertex="1" parent="1">
          <mxGeometry x="161" y="982.66" width="36.26923076923077" height="36.26923076923077" as="geometry" />
        </mxCell>
        <mxCell id="PMTPL5XqbX-TbTa32AAc-101" value="&amp;nbsp; &amp;nbsp; &amp;nbsp; &amp;nbsp; &amp;nbsp;PostgreSql" style="shape=cylinder3;whiteSpace=wrap;html=1;boundedLbl=1;backgroundOutline=1;size=15;fillColor=none;strokeColor=#81a4ff;" vertex="1" parent="1">
          <mxGeometry x="155" y="950" width="126" height="80" as="geometry" />
        </mxCell>
        <mxCell id="PMTPL5XqbX-TbTa32AAc-102" style="edgeStyle=orthogonalEdgeStyle;rounded=0;orthogonalLoop=1;jettySize=auto;html=1;exitX=0.5;exitY=1;exitDx=0;exitDy=0;entryX=0.5;entryY=0;entryDx=0;entryDy=0;entryPerimeter=0;" edge="1" parent="1" source="PMTPL5XqbX-TbTa32AAc-97" target="PMTPL5XqbX-TbTa32AAc-101">
          <mxGeometry relative="1" as="geometry" />
        </mxCell>
        <mxCell id="PMTPL5XqbX-TbTa32AAc-146" style="edgeStyle=orthogonalEdgeStyle;rounded=0;orthogonalLoop=1;jettySize=auto;html=1;exitX=0.5;exitY=1;exitDx=0;exitDy=0;exitPerimeter=0;entryX=0.5;entryY=0;entryDx=0;entryDy=0;" edge="1" parent="1" source="PMTPL5XqbX-TbTa32AAc-104" target="PMTPL5XqbX-TbTa32AAc-116">
          <mxGeometry relative="1" as="geometry" />
        </mxCell>
        <mxCell id="PMTPL5XqbX-TbTa32AAc-104" style="vsdxID=6;fillColor=none;gradientColor=none;shape=stencil(vVNdD4IgFP01POIQms1nq//BEpVF4q6U9u/DoFJxPdjm2/04cO65cBDL2oo3AlHSGtAX0cncVIgdEKWyrgRIYyPEjohlhQZRgr7VucsbPiCH6Krvww29O0eGE5Q8XJaSaPcqnByWw9k2wWNZRFMHhzc+SlwhQHhATDxBj3kvWwzacCN1PSFXHEqBLRcuFC8nrbYTognKfjol65GSNIn28SL5SjGf2efL2UBMwO1nWykl3M1mzxJ8ib/eZHkrG8j47RMbfA1WSKWcP8f9uSFtyZmZHZ8=);strokeColor=#5282ff;spacingTop=-3;spacingBottom=-3;spacingLeft=-3;spacingRight=-3;points=[[0,0.5,0,0,0],[0.25,0,0,0,0],[0.5,0,0,0,0],[0.5,1,0,0,0],[0.75,0,0,0,0],[1,0.5,0,0,0]];labelBackgroundColor=none;rounded=0;html=1;whiteSpace=wrap;container=0;movable=1;resizable=1;rotatable=1;deletable=1;editable=1;locked=0;connectable=1;" vertex="1" parent="1">
          <mxGeometry x="510" y="500" width="320" height="310" as="geometry" />
        </mxCell>
        <mxCell id="PMTPL5XqbX-TbTa32AAc-105" style="vsdxID=5;fillColor=none;gradientColor=none;shape=stencil(vVPLEoIgFP0aljgEVuPa6j+YRGUica6U9vdhUKk4LWzG3X0cOPdcOIilTclrgShpDOiLaGVmSsQOiFJZlQKksRFiR8TSXIMoQN+qzOU175F9dNX3/obOnSP9CUoeLktIFL8KJ4flcLZN8NhtRJiDwxsf7VwhQHjAhniCDvNONhi04UbqakSuOBQCWy6cK16MWk0rRB2U/XRKVgMlSRwl+1nyhWI+s0+Xs4KYgNvPtlBKuJvVniX4En+9yfxWVpDx2yc2+Bosl0o5fw77U0PakjMzOz4B);strokeColor=#ff5958;spacingTop=-3;spacingBottom=-3;spacingLeft=-3;spacingRight=-3;points=[];labelBackgroundColor=none;rounded=0;html=1;whiteSpace=wrap;" vertex="1" parent="1">
          <mxGeometry x="523" y="680" width="140" height="104" as="geometry" />
        </mxCell>
        <mxCell id="PMTPL5XqbX-TbTa32AAc-106" value="&lt;div style=&quot;font-size: 1px&quot;&gt;&lt;font style=&quot;font-size:22.58px;font-family:Arial;color:#000000;direction:ltr;letter-spacing:0px;line-height:120%;opacity:1&quot;&gt;InsureTech namespace&lt;br&gt;&lt;/font&gt;&lt;/div&gt;" style="verticalAlign=bottom;align=center;overflow=width;vsdxID=6;fillColor=none;gradientColor=none;strokeColor=none;spacingTop=-3;spacingBottom=-3;spacingLeft=-3;spacingRight=-3;points=[];labelBackgroundColor=none;rounded=0;html=1;whiteSpace=wrap;" vertex="1" parent="1">
          <mxGeometry x="523" y="720" width="140" height="55" as="geometry" />
        </mxCell>
        <mxCell id="PMTPL5XqbX-TbTa32AAc-107" value="" style="shape=image;verticalLabelPosition=bottom;verticalAlign=top;imageAspect=0;aspect=fixed;image=data:image/svg+xml,PHN2ZyB4bWxucz0iaHR0cDovL3d3dy53My5vcmcvMjAwMC9zdmciIHdpZHRoPSIzMiIgaGVpZ2h0PSIzMiIgdmlld0JveD0iMCAwIDMyIDMyIiBmaWxsPSJub25lIj4mI3hhOzxwYXRoIGQ9Ik0wIDE2QzAgNy4xNjM0NCA3LjE2MzQ0IDAgMTYgMFYwQzI0LjgzNjYgMCAzMiA3LjE2MzQ0IDMyIDE2VjE2QzMyIDI0LjgzNjYgMjQuODM2NiAzMiAxNiAzMlYzMkM3LjE2MzQ0IDMyIDAgMjQuODM2NiAwIDE2VjE2WiIgZmlsbD0iIzUyODJGRiIvPiYjeGE7PHBhdGggZD0iTTExLjk5NSAyNEw3LjAwMDk4IDE3LjczOEw4Ljc4MTk4IDkuOTI3TDE2IDYuNDUzTDIzLjIxOCA5LjkyOEwyNC45OTkgMTcuNzM5TDIwLjAwNSAyNEgxMS45OTVaTTIwIDEzLjE5NkwxNS45OTkgMTAuODk5TDEyIDEzLjE5NlYxOC4xTDE2IDIwLjQwMUwyMCAxOC4xVjEzLjE5NlpNMTguNzggMTMuODk2SDE4Ljc4N0wxNiAxNS40OTlMMTMuMjE0IDEzLjg5NUgxMy4yMTlMMTUuOTk5IDEyLjI5OUwxOC43OCAxMy44OTZaIiBmaWxsPSJ3aGl0ZSIvPiYjeGE7PC9zdmc+;" vertex="1" parent="1">
          <mxGeometry x="577" y="688" width="32" height="32" as="geometry" />
        </mxCell>
        <mxCell id="PMTPL5XqbX-TbTa32AAc-108" value="" style="shape=image;verticalLabelPosition=bottom;labelBackgroundColor=#ffffff;verticalAlign=top;aspect=fixed;imageAspect=0;image=data:image/svg+xml,PHN2ZyB4bWxucz0iaHR0cDovL3d3dy53My5vcmcvMjAwMC9zdmciIHdpZHRoPSIzMiIgaGVpZ2h0PSIzMiIgdmlld0JveD0iMCAwIDMyIDMyIiBmaWxsPSJub25lIj4mI3hhOzxwYXRoIGQ9Ik0xNiAzMkMyNC44MzY2IDMyIDMyIDI0LjgzNjYgMzIgMTZDMzIgNy4xNjM0NCAyNC44MzY2IDAgMTYgMEM3LjE2MzQ0IDAgMCA3LjE2MzQ0IDAgMTZDMCAyNC44MzY2IDcuMTYzNDQgMzIgMTYgMzJaIiBmaWxsPSIjNTI4MkZGIi8+JiN4YTs8cGF0aCBmaWxsLXJ1bGU9ImV2ZW5vZGQiIGNsaXAtcnVsZT0iZXZlbm9kZCIgZD0iTTIzLjI0NjEgMjRWMjAuMDU1N0wyMS44Nzg3IDIxLjE0NjVMMTkuMjIyOSAxNy43NTU5QzE5LjU5MTUgMTcuMjU3NiAxOS44MDk0IDE2LjY0MSAxOS44MDk0IDE1Ljk3MzZDMTkuODA5NCAxNS44NDY0IDE5LjgwMTUgMTUuNzIxMSAxOS43ODYyIDE1LjU5ODFMMjEuMzgxOCAxNC45NzkxTDIyLjAxMzIgMTYuNjI0MUwyMy45OTk1IDEzLjIzMDVMMjAuMjUyNiAxMi4wMzc2TDIwLjg4IDEzLjY3MjFMMTkuMjkxNyAxNC4yODgzQzE4Ljc1MTkgMTMuNDk0OCAxNy44NDE1IDEyLjk3MzYgMTYuODA5NCAxMi45NzM2QzE2Ljc2NzggMTIuOTczNiAxNi43MjY0IDEyLjk3NDQgMTYuNjg1MiAxMi45NzYxTDE1LjkzNyAxMC43MDgyTDE3LjYyMDUgMTAuMTYxMkwxNC4zMzU0IDhMMTIuOTQ4MSAxMS42NzkzTDE0LjYwNTUgMTEuMTQwOEwxNS4zMzc1IDEzLjM1ODlDMTQuNjI3IDEzLjc1OTcgMTQuMDk2MyAxNC40NDE4IDEzLjg5NjMgMTUuMjUzOUwxMy44OTY2IDE1LjI1MjhMMTEuODcxMiAxNS4yNTI0QzExLjU4NzQgMTQuNDk0MSAxMC44NTYyIDEzLjk1NDMgOS45OTg5IDEzLjk1NDNDOC44OTUyMSAxMy45NTQzIDguMDAwNDkgMTQuODQ5IDguMDAwNDkgMTUuOTUyN0M4LjAwMDQ5IDE3LjA1NjQgOC44OTUyMSAxNy45NTExIDkuOTk4OSAxNy45NTExQzEwLjg1NjQgMTcuOTUxMSAxMS41ODc4IDE3LjQxMSAxMS44NzE0IDE2LjY1MjRMMTMuODg2NiAxNi42NTI4QzE0LjA0MDcgMTcuMzE4OSAxNC40MTY2IDE3Ljg5OTcgMTQuOTMyMyAxOC4zMTM5TDE0LjkzMTQgMTguMzEzM0wxNC4wMjkyIDIwLjA4MTFMMTIuNDczNiAxOS4yODU5TDEzLjI2MzEgMjMuMTM4TDE2Ljg0OCAyMS41MjIxTDE1LjI3NTggMjAuNzE4NEwxNi4xOTggMTguOTExM0wxNi4xOTcgMTguOTExMUMxNi4zOTQ3IDE4Ljk1MjEgMTYuNTk5NiAxOC45NzM2IDE2LjgwOTQgMTguOTczNkMxNy4yOTE2IDE4Ljk3MzYgMTcuNzQ3MiAxOC44NTk4IDE4LjE1MDkgMTguNjU3N0wyMC43ODQyIDIyLjAxOTVMMTkuNDA1NSAyMy4xMTkzTDIzLjI0NjEgMjRaTTE2LjgwOTQgMTQuMzczNkMxNy42OTMxIDE0LjM3MzYgMTguNDA5NCAxNS4wODk5IDE4LjQwOTQgMTUuOTczNkMxOC40MDk0IDE2Ljg1NzMgMTcuNjkzMSAxNy41NzM2IDE2LjgwOTQgMTcuNTczNkMxNS45MjU4IDE3LjU3MzYgMTUuMjA5NCAxNi44NTczIDE1LjIwOTQgMTUuOTczNkMxNS4yMDk0IDE1LjA4OTkgMTUuOTI1OCAxNC4zNzM2IDE2LjgwOTQgMTQuMzczNloiIGZpbGw9IndoaXRlIi8+JiN4YTs8L3N2Zz4=;" vertex="1" parent="1">
          <mxGeometry x="659.11" y="540" width="32" height="32" as="geometry" />
        </mxCell>
        <mxCell id="PMTPL5XqbX-TbTa32AAc-109" style="vsdxID=5;fillColor=none;gradientColor=none;shape=stencil(vVPLEoIgFP0aljgEVuPa6j+YRGUica6U9vdhUKk4LWzG3X0cOPdcOIilTclrgShpDOiLaGVmSsQOiFJZlQKksRFiR8TSXIMoQN+qzOU175F9dNX3/obOnSP9CUoeLktIFL8KJ4flcLZN8NhtRJiDwxsf7VwhQHjAhniCDvNONhi04UbqakSuOBQCWy6cK16MWk0rRB2U/XRKVgMlSRwl+1nyhWI+s0+Xs4KYgNvPtlBKuJvVniX4En+9yfxWVpDx2yc2+Bosl0o5fw77U0PakjMzOz4B);strokeColor=#ff5958;spacingTop=-3;spacingBottom=-3;spacingLeft=-3;spacingRight=-3;points=[];labelBackgroundColor=none;rounded=0;html=1;whiteSpace=wrap;" vertex="1" parent="1">
          <mxGeometry x="680" y="680" width="140" height="104" as="geometry" />
        </mxCell>
        <mxCell id="PMTPL5XqbX-TbTa32AAc-110" value="&lt;div style=&quot;font-size: 1px&quot;&gt;&lt;font style=&quot;font-size:22.58px;font-family:Arial;color:#000000;direction:ltr;letter-spacing:0px;line-height:120%;opacity:1&quot;&gt;InsureTech namespace&lt;br&gt;&lt;/font&gt;&lt;/div&gt;" style="verticalAlign=bottom;align=center;overflow=width;vsdxID=6;fillColor=none;gradientColor=none;strokeColor=none;spacingTop=-3;spacingBottom=-3;spacingLeft=-3;spacingRight=-3;points=[];labelBackgroundColor=none;rounded=0;html=1;whiteSpace=wrap;" vertex="1" parent="1">
          <mxGeometry x="680" y="720" width="140" height="55" as="geometry" />
        </mxCell>
        <mxCell id="PMTPL5XqbX-TbTa32AAc-111" value="" style="shape=image;verticalLabelPosition=bottom;verticalAlign=top;imageAspect=0;aspect=fixed;image=data:image/svg+xml,PHN2ZyB4bWxucz0iaHR0cDovL3d3dy53My5vcmcvMjAwMC9zdmciIHdpZHRoPSIzMiIgaGVpZ2h0PSIzMiIgdmlld0JveD0iMCAwIDMyIDMyIiBmaWxsPSJub25lIj4mI3hhOzxwYXRoIGQ9Ik0wIDE2QzAgNy4xNjM0NCA3LjE2MzQ0IDAgMTYgMFYwQzI0LjgzNjYgMCAzMiA3LjE2MzQ0IDMyIDE2VjE2QzMyIDI0LjgzNjYgMjQuODM2NiAzMiAxNiAzMlYzMkM3LjE2MzQ0IDMyIDAgMjQuODM2NiAwIDE2VjE2WiIgZmlsbD0iIzUyODJGRiIvPiYjeGE7PHBhdGggZD0iTTExLjk5NSAyNEw3LjAwMDk4IDE3LjczOEw4Ljc4MTk4IDkuOTI3TDE2IDYuNDUzTDIzLjIxOCA5LjkyOEwyNC45OTkgMTcuNzM5TDIwLjAwNSAyNEgxMS45OTVaTTIwIDEzLjE5NkwxNS45OTkgMTAuODk5TDEyIDEzLjE5NlYxOC4xTDE2IDIwLjQwMUwyMCAxOC4xVjEzLjE5NlpNMTguNzggMTMuODk2SDE4Ljc4N0wxNiAxNS40OTlMMTMuMjE0IDEzLjg5NUgxMy4yMTlMMTUuOTk5IDEyLjI5OUwxOC43OCAxMy44OTZaIiBmaWxsPSJ3aGl0ZSIvPiYjeGE7PC9zdmc+;" vertex="1" parent="1">
          <mxGeometry x="734" y="688" width="32" height="32" as="geometry" />
        </mxCell>
        <mxCell id="PMTPL5XqbX-TbTa32AAc-112" style="edgeStyle=orthogonalEdgeStyle;rounded=0;orthogonalLoop=1;jettySize=auto;html=1;exitX=0.25;exitY=1;exitDx=0;exitDy=0;entryX=0.488;entryY=0.014;entryDx=0;entryDy=0;entryPerimeter=0;" edge="1" parent="1" source="PMTPL5XqbX-TbTa32AAc-108" target="PMTPL5XqbX-TbTa32AAc-105">
          <mxGeometry relative="1" as="geometry" />
        </mxCell>
        <mxCell id="PMTPL5XqbX-TbTa32AAc-113" style="edgeStyle=orthogonalEdgeStyle;rounded=0;orthogonalLoop=1;jettySize=auto;html=1;exitX=0.75;exitY=1;exitDx=0;exitDy=0;entryX=0.539;entryY=-0.002;entryDx=0;entryDy=0;entryPerimeter=0;" edge="1" parent="1" source="PMTPL5XqbX-TbTa32AAc-108" target="PMTPL5XqbX-TbTa32AAc-109">
          <mxGeometry relative="1" as="geometry" />
        </mxCell>
        <mxCell id="PMTPL5XqbX-TbTa32AAc-114" value="Kubernetes cluster" style="text;html=1;align=center;verticalAlign=middle;whiteSpace=wrap;rounded=0;" vertex="1" parent="1">
          <mxGeometry x="523" y="520" width="60" height="30" as="geometry" />
        </mxCell>
        <mxCell id="PMTPL5XqbX-TbTa32AAc-115" value="Load balancer" style="text;html=1;align=center;verticalAlign=middle;whiteSpace=wrap;rounded=0;" vertex="1" parent="1">
          <mxGeometry x="701" y="540" width="60" height="30" as="geometry" />
        </mxCell>
        <mxCell id="PMTPL5XqbX-TbTa32AAc-116" value="" style="rounded=1;whiteSpace=wrap;html=1;fillColor=none;strokeColor=#5282ff;" vertex="1" parent="1">
          <mxGeometry x="584" y="850" width="150" height="60" as="geometry" />
        </mxCell>
        <mxCell id="PMTPL5XqbX-TbTa32AAc-117" value="" style="shape=image;verticalLabelPosition=bottom;labelBackgroundColor=#ffffff;verticalAlign=top;aspect=fixed;imageAspect=0;image=data:image/svg+xml,PHN2ZyB4bWxucz0iaHR0cDovL3d3dy53My5vcmcvMjAwMC9zdmciIHdpZHRoPSIzMiIgaGVpZ2h0PSIzMiIgdmlld0JveD0iMCAwIDMyIDMyIiBmaWxsPSJub25lIj4mI3hhOzxwYXRoIGQ9Ik0xNiAzMkMyNC44MzY2IDMyIDMyIDI0LjgzNjYgMzIgMTZDMzIgNy4xNjM0NCAyNC44MzY2IDAgMTYgMEM3LjE2MzQ0IDAgMCA3LjE2MzQ0IDAgMTZDMCAyNC44MzY2IDcuMTYzNDQgMzIgMTYgMzJaIiBmaWxsPSIjNTI4MkZGIi8+JiN4YTs8cGF0aCBmaWxsLXJ1bGU9ImV2ZW5vZGQiIGNsaXAtcnVsZT0iZXZlbm9kZCIgZD0iTTIzLjI0NjEgMjRWMjAuMDU1N0wyMS44Nzg3IDIxLjE0NjVMMTkuMjIyOSAxNy43NTU5QzE5LjU5MTUgMTcuMjU3NiAxOS44MDk0IDE2LjY0MSAxOS44MDk0IDE1Ljk3MzZDMTkuODA5NCAxNS44NDY0IDE5LjgwMTUgMTUuNzIxMSAxOS43ODYyIDE1LjU5ODFMMjEuMzgxOCAxNC45NzkxTDIyLjAxMzIgMTYuNjI0MUwyMy45OTk1IDEzLjIzMDVMMjAuMjUyNiAxMi4wMzc2TDIwLjg4IDEzLjY3MjFMMTkuMjkxNyAxNC4yODgzQzE4Ljc1MTkgMTMuNDk0OCAxNy44NDE1IDEyLjk3MzYgMTYuODA5NCAxMi45NzM2QzE2Ljc2NzggMTIuOTczNiAxNi43MjY0IDEyLjk3NDQgMTYuNjg1MiAxMi45NzYxTDE1LjkzNyAxMC43MDgyTDE3LjYyMDUgMTAuMTYxMkwxNC4zMzU0IDhMMTIuOTQ4MSAxMS42NzkzTDE0LjYwNTUgMTEuMTQwOEwxNS4zMzc1IDEzLjM1ODlDMTQuNjI3IDEzLjc1OTcgMTQuMDk2MyAxNC40NDE4IDEzLjg5NjMgMTUuMjUzOUwxMy44OTY2IDE1LjI1MjhMMTEuODcxMiAxNS4yNTI0QzExLjU4NzQgMTQuNDk0MSAxMC44NTYyIDEzLjk1NDMgOS45OTg5IDEzLjk1NDNDOC44OTUyMSAxMy45NTQzIDguMDAwNDkgMTQuODQ5IDguMDAwNDkgMTUuOTUyN0M4LjAwMDQ5IDE3LjA1NjQgOC44OTUyMSAxNy45NTExIDkuOTk4OSAxNy45NTExQzEwLjg1NjQgMTcuOTUxMSAxMS41ODc4IDE3LjQxMSAxMS44NzE0IDE2LjY1MjRMMTMuODg2NiAxNi42NTI4QzE0LjA0MDcgMTcuMzE4OSAxNC40MTY2IDE3Ljg5OTcgMTQuOTMyMyAxOC4zMTM5TDE0LjkzMTQgMTguMzEzM0wxNC4wMjkyIDIwLjA4MTFMMTIuNDczNiAxOS4yODU5TDEzLjI2MzEgMjMuMTM4TDE2Ljg0OCAyMS41MjIxTDE1LjI3NTggMjAuNzE4NEwxNi4xOTggMTguOTExM0wxNi4xOTcgMTguOTExMUMxNi4zOTQ3IDE4Ljk1MjEgMTYuNTk5NiAxOC45NzM2IDE2LjgwOTQgMTguOTczNkMxNy4yOTE2IDE4Ljk3MzYgMTcuNzQ3MiAxOC44NTk4IDE4LjE1MDkgMTguNjU3N0wyMC43ODQyIDIyLjAxOTVMMTkuNDA1NSAyMy4xMTkzTDIzLjI0NjEgMjRaTTE2LjgwOTQgMTQuMzczNkMxNy42OTMxIDE0LjM3MzYgMTguNDA5NCAxNS4wODk5IDE4LjQwOTQgMTUuOTczNkMxOC40MDk0IDE2Ljg1NzMgMTcuNjkzMSAxNy41NzM2IDE2LjgwOTQgMTcuNTczNkMxNS45MjU4IDE3LjU3MzYgMTUuMjA5NCAxNi44NTczIDE1LjIwOTQgMTUuOTczNkMxNS4yMDk0IDE1LjA4OTkgMTUuOTI1OCAxNC4zNzM2IDE2LjgwOTQgMTQuMzczNloiIGZpbGw9IndoaXRlIi8+JiN4YTs8L3N2Zz4=;" vertex="1" parent="1">
          <mxGeometry x="604" y="863.73" width="32" height="32" as="geometry" />
        </mxCell>
        <mxCell id="PMTPL5XqbX-TbTa32AAc-118" value="HA Proxy" style="text;html=1;align=center;verticalAlign=middle;whiteSpace=wrap;rounded=0;" vertex="1" parent="1">
          <mxGeometry x="650" y="863.73" width="60" height="30" as="geometry" />
        </mxCell>
        <mxCell id="PMTPL5XqbX-TbTa32AAc-119" value="" style="shape=image;verticalLabelPosition=bottom;verticalAlign=top;imageAspect=0;aspect=fixed;image=data:image/svg+xml,PHN2ZyB4bWxucz0iaHR0cDovL3d3dy53My5vcmcvMjAwMC9zdmciIHdpZHRoPSIzMiIgaGVpZ2h0PSIzMiIgdmlld0JveD0iMCAwIDMyIDMyIiBmaWxsPSJub25lIj4mI3hhOzxwYXRoIGQ9Ik0wIDE2QzAgNy4xNjM0NCA3LjE2MzQ0IDAgMTYgMFYwQzI0LjgzNjYgMCAzMiA3LjE2MzQ0IDMyIDE2VjE2QzMyIDI0LjgzNjYgMjQuODM2NiAzMiAxNiAzMlYzMkM3LjE2MzQ0IDMyIDAgMjQuODM2NiAwIDE2VjE2WiIgZmlsbD0iIzUyODJGRiIvPiYjeGE7PHBhdGggZmlsbC1ydWxlPSJldmVub2RkIiBjbGlwLXJ1bGU9ImV2ZW5vZGQiIGQ9Ik0xMyA4SDE4QzIxLjMgOCAyNCAxMC43IDI0IDE0VjI0SDIwVjIwSDIyVjE5SDE4LjZDMTUuNSAxOSAxMyAxNi41IDEzIDEzLjRWOFpNMTkgMTdIMjFWMTVIMTlWMTdaTTEyIDkuMDk5OThWMTMuNEMxMiAxNi44IDE0LjYgMTkuNyAxOCAyMC4xVjIwLjZDMTggMjIgMTUuOCAyMy4xIDEzIDIzLjFDMTAuMiAyMy4xIDggMjIgOCAyMC42VjExLjZDOCAxMC4zIDkuNyA5LjI5OTk4IDEyIDkuMDk5OThaIiBmaWxsPSJ3aGl0ZSIvPiYjeGE7PC9zdmc+;container=0;" vertex="1" parent="1">
          <mxGeometry x="601" y="982.66" width="36.26923076923077" height="36.26923076923077" as="geometry" />
        </mxCell>
        <mxCell id="PMTPL5XqbX-TbTa32AAc-120" value="&amp;nbsp; &amp;nbsp; &amp;nbsp; &amp;nbsp; &amp;nbsp;PostgreSql" style="shape=cylinder3;whiteSpace=wrap;html=1;boundedLbl=1;backgroundOutline=1;size=15;fillColor=none;strokeColor=#81a4ff;" vertex="1" parent="1">
          <mxGeometry x="595" y="950" width="126" height="80" as="geometry" />
        </mxCell>
        <mxCell id="PMTPL5XqbX-TbTa32AAc-121" style="edgeStyle=orthogonalEdgeStyle;rounded=0;orthogonalLoop=1;jettySize=auto;html=1;exitX=0.5;exitY=1;exitDx=0;exitDy=0;entryX=0.5;entryY=0;entryDx=0;entryDy=0;entryPerimeter=0;" edge="1" parent="1" source="PMTPL5XqbX-TbTa32AAc-116" target="PMTPL5XqbX-TbTa32AAc-120">
          <mxGeometry relative="1" as="geometry" />
        </mxCell>
        <mxCell id="PMTPL5XqbX-TbTa32AAc-122" style="edgeStyle=orthogonalEdgeStyle;rounded=0;orthogonalLoop=1;jettySize=auto;html=1;exitX=0.5;exitY=0;exitDx=0;exitDy=0;exitPerimeter=0;entryX=0.25;entryY=0;entryDx=0;entryDy=0;entryPerimeter=0;" edge="1" parent="1" source="TVqpBcGlLWkRzgnXlcQU-73" target="Zcm5tQwCMB2YyKj0-IPv-5">
          <mxGeometry relative="1" as="geometry">
            <Array as="points">
              <mxPoint x="565" y="100" />
              <mxPoint x="-303" y="100" />
            </Array>
          </mxGeometry>
        </mxCell>
        <mxCell id="PMTPL5XqbX-TbTa32AAc-147" value="health check" style="edgeLabel;html=1;align=center;verticalAlign=middle;resizable=0;points=[];" vertex="1" connectable="0" parent="PMTPL5XqbX-TbTa32AAc-122">
          <mxGeometry x="0.057" y="10" relative="1" as="geometry">
            <mxPoint x="-2" as="offset" />
          </mxGeometry>
        </mxCell>
        <mxCell id="PMTPL5XqbX-TbTa32AAc-123" style="edgeStyle=orthogonalEdgeStyle;rounded=0;orthogonalLoop=1;jettySize=auto;html=1;exitX=0.5;exitY=1;exitDx=0;exitDy=0;exitPerimeter=0;entryX=0.75;entryY=0;entryDx=0;entryDy=0;entryPerimeter=0;" edge="1" parent="1" source="TVqpBcGlLWkRzgnXlcQU-73" target="PMTPL5XqbX-TbTa32AAc-85">
          <mxGeometry relative="1" as="geometry" />
        </mxCell>
        <mxCell id="PMTPL5XqbX-TbTa32AAc-149" value="health check" style="edgeLabel;html=1;align=center;verticalAlign=middle;resizable=0;points=[];" vertex="1" connectable="0" parent="PMTPL5XqbX-TbTa32AAc-123">
          <mxGeometry x="-0.6336" y="2" relative="1" as="geometry">
            <mxPoint y="-1" as="offset" />
          </mxGeometry>
        </mxCell>
        <mxCell id="PMTPL5XqbX-TbTa32AAc-124" style="edgeStyle=orthogonalEdgeStyle;rounded=0;orthogonalLoop=1;jettySize=auto;html=1;exitX=1;exitY=0.5;exitDx=0;exitDy=0;exitPerimeter=0;entryX=0.75;entryY=0;entryDx=0;entryDy=0;entryPerimeter=0;" edge="1" parent="1" source="TVqpBcGlLWkRzgnXlcQU-73" target="PMTPL5XqbX-TbTa32AAc-104">
          <mxGeometry relative="1" as="geometry" />
        </mxCell>
        <mxCell id="PMTPL5XqbX-TbTa32AAc-148" value="health check" style="edgeLabel;html=1;align=center;verticalAlign=middle;resizable=0;points=[];" vertex="1" connectable="0" parent="PMTPL5XqbX-TbTa32AAc-124">
          <mxGeometry x="-0.4896" relative="1" as="geometry">
            <mxPoint as="offset" />
          </mxGeometry>
        </mxCell>
        <mxCell id="PMTPL5XqbX-TbTa32AAc-126" style="edgeStyle=orthogonalEdgeStyle;rounded=0;orthogonalLoop=1;jettySize=auto;html=1;exitX=0.5;exitY=1;exitDx=0;exitDy=0;exitPerimeter=0;entryX=0.5;entryY=0;entryDx=0;entryDy=0;entryPerimeter=0;" edge="1" parent="1" source="Zcm5tQwCMB2YyKj0-IPv-39" target="PMTPL5XqbX-TbTa32AAc-104">
          <mxGeometry relative="1" as="geometry" />
        </mxCell>
        <mxCell id="PMTPL5XqbX-TbTa32AAc-128" value="Active Failover" style="edgeLabel;html=1;align=center;verticalAlign=middle;resizable=0;points=[];" vertex="1" connectable="0" parent="PMTPL5XqbX-TbTa32AAc-126">
          <mxGeometry x="-0.8099" y="6" relative="1" as="geometry">
            <mxPoint as="offset" />
          </mxGeometry>
        </mxCell>
        <mxCell id="PMTPL5XqbX-TbTa32AAc-135" style="edgeStyle=orthogonalEdgeStyle;rounded=0;orthogonalLoop=1;jettySize=auto;html=1;exitX=0.5;exitY=1;exitDx=0;exitDy=0;entryX=0.5;entryY=0;entryDx=0;entryDy=0;entryPerimeter=0;" edge="1" parent="1" source="PMTPL5XqbX-TbTa32AAc-36" target="PMTPL5XqbX-TbTa32AAc-101">
          <mxGeometry relative="1" as="geometry" />
        </mxCell>
        <mxCell id="PMTPL5XqbX-TbTa32AAc-136" style="edgeStyle=orthogonalEdgeStyle;rounded=0;orthogonalLoop=1;jettySize=auto;html=1;exitX=0.5;exitY=1;exitDx=0;exitDy=0;entryX=0.5;entryY=0;entryDx=0;entryDy=0;entryPerimeter=0;" edge="1" parent="1" source="PMTPL5XqbX-TbTa32AAc-116" target="PMTPL5XqbX-TbTa32AAc-101">
          <mxGeometry relative="1" as="geometry" />
        </mxCell>
        <mxCell id="PMTPL5XqbX-TbTa32AAc-138" style="edgeStyle=orthogonalEdgeStyle;rounded=0;orthogonalLoop=1;jettySize=auto;html=1;exitX=1;exitY=0.5;exitDx=0;exitDy=0;exitPerimeter=0;entryX=0;entryY=0.5;entryDx=0;entryDy=0;entryPerimeter=0;startArrow=classic;startFill=1;dashed=1;" edge="1" parent="1" source="PMTPL5XqbX-TbTa32AAc-101" target="PMTPL5XqbX-TbTa32AAc-120">
          <mxGeometry relative="1" as="geometry" />
        </mxCell>
        <mxCell id="PMTPL5XqbX-TbTa32AAc-140" value="Потоковая репликация" style="edgeLabel;html=1;align=center;verticalAlign=middle;resizable=0;points=[];" vertex="1" connectable="0" parent="PMTPL5XqbX-TbTa32AAc-138">
          <mxGeometry x="-0.0021" relative="1" as="geometry">
            <mxPoint as="offset" />
          </mxGeometry>
        </mxCell>
      </root>
    </mxGraphModel>
  </diagram>
</mxfile>
